<svg width="25" height="24" viewBox="0 0 25 24" fill="none" xmlns="http://www.w3.org/2000/svg">
<g clip-path="url(#clip0_864_170)">
<path d="M19.75 2H18.75V1C18.75 0.734784 18.6446 0.48043 18.4571 0.292893C18.2696 0.105357 18.0152 0 17.75 0C17.4848 0 17.2304 0.105357 17.0429 0.292893C16.8554 0.48043 16.75 0.734784 16.75 1V2H8.75V1C8.75 0.734784 8.64464 0.48043 8.45711 0.292893C8.26957 0.105357 8.01522 0 7.75 0C7.48478 0 7.23043 0.105357 7.04289 0.292893C6.85536 0.48043 6.75 0.734784 6.75 1V2H5.75C4.42441 2.00159 3.15356 2.52888 2.21622 3.46622C1.27888 4.40356 0.751588 5.67441 0.75 7L0.75 19C0.751588 20.3256 1.27888 21.5964 2.21622 22.5338C3.15356 23.4711 4.42441 23.9984 5.75 24H19.75C21.0756 23.9984 22.3464 23.4711 23.2838 22.5338C24.2211 21.5964 24.7484 20.3256 24.75 19V7C24.7484 5.67441 24.2211 4.40356 23.2838 3.46622C22.3464 2.52888 21.0756 2.00159 19.75 2ZM2.75 7C2.75 6.20435 3.06607 5.44129 3.62868 4.87868C4.19129 4.31607 4.95435 4 5.75 4H19.75C20.5456 4 21.3087 4.31607 21.8713 4.87868C22.4339 5.44129 22.75 6.20435 22.75 7V8H2.75V7ZM19.75 22H5.75C4.95435 22 4.19129 21.6839 3.62868 21.1213C3.06607 20.5587 2.75 19.7956 2.75 19V10H22.75V19C22.75 19.7956 22.4339 20.5587 21.8713 21.1213C21.3087 21.6839 20.5456 22 19.75 22Z" fill="#595959"/>
<path d="M12.75 16.5C13.5784 16.5 14.25 15.8284 14.25 15C14.25 14.1716 13.5784 13.5 12.75 13.5C11.9216 13.5 11.25 14.1716 11.25 15C11.25 15.8284 11.9216 16.5 12.75 16.5Z" fill="#595959"/>
<path d="M7.75 16.5C8.57843 16.5 9.25 15.8284 9.25 15C9.25 14.1716 8.57843 13.5 7.75 13.5C6.92157 13.5 6.25 14.1716 6.25 15C6.25 15.8284 6.92157 16.5 7.75 16.5Z" fill="#595959"/>
<path d="M17.75 16.5C18.5784 16.5 19.25 15.8284 19.25 15C19.25 14.1716 18.5784 13.5 17.75 13.5C16.9216 13.5 16.25 14.1716 16.25 15C16.25 15.8284 16.9216 16.5 17.75 16.5Z" fill="#595959"/>
</g>
<defs>
<clipPath id="clip0_864_170">
<rect width="24" height="24" fill="white" transform="translate(0.75)"/>
</clipPath>
</defs>
</svg>
