<svg width="24" height="24" viewBox="0 0 24 24" fill="none" xmlns="http://www.w3.org/2000/svg">
<g clip-path="url(#clip0_7_407)">
<path d="M7 0H4C1.79086 0 0 1.79086 0 4V7C0 9.20914 1.79086 11 4 11H7C9.20914 11 11 9.20914 11 7V4C11 1.79086 9.20914 0 7 0Z" fill="#7161ba"/>
<path d="M19.9998 0H16.9998C14.7907 0 12.9999 1.79086 12.9999 4V7C12.9999 9.20915 14.7907 11 16.9998 11H19.9998C22.209 11 23.9998 9.20915 23.9998 7V4C23.9998 1.79086 22.209 0 19.9998 0Z" fill="#7161ba"/>
<path d="M6.99999 13H3.99999C1.79085 13 -7.62939e-06 14.7909 -7.62939e-06 17V20C-7.62939e-06 22.2092 1.79085 24 3.99999 24H6.99999C9.20913 24 11 22.2092 11 20V17C11 14.7909 9.20913 13 6.99999 13Z" fill="#7161ba"/>
<path d="M19.9998 13H16.9998C14.7907 13 12.9999 14.7909 12.9999 17V20C12.9999 22.2092 14.7907 24 16.9998 24H19.9998C22.209 24 23.9998 22.2092 23.9998 20V17C23.9998 14.7909 22.209 13 19.9998 13Z" fill="#7161ba"/>
</g>
<defs>
<clipPath id="clip0_7_407">
<rect width="24" height="24" fill="white"/>
</clipPath>
</defs>
</svg>
