<svg width="25" height="24" viewBox="0 0 25 24" fill="none" xmlns="http://www.w3.org/2000/svg">
<g clip-path="url(#clip0_864_2363)">
<path d="M7.5 0H4.5C3.43913 0 2.42172 0.421427 1.67157 1.17157C0.921427 1.92172 0.5 2.93913 0.5 4L0.5 7C0.5 8.06087 0.921427 9.07828 1.67157 9.82843C2.42172 10.5786 3.43913 11 4.5 11H7.5C8.56087 11 9.57828 10.5786 10.3284 9.82843C11.0786 9.07828 11.5 8.06087 11.5 7V4C11.5 2.93913 11.0786 1.92172 10.3284 1.17157C9.57828 0.421427 8.56087 0 7.5 0V0ZM9.5 7C9.5 7.53043 9.28929 8.03914 8.91421 8.41421C8.53914 8.78929 8.03043 9 7.5 9H4.5C3.96957 9 3.46086 8.78929 3.08579 8.41421C2.71071 8.03914 2.5 7.53043 2.5 7V4C2.5 3.46957 2.71071 2.96086 3.08579 2.58579C3.46086 2.21071 3.96957 2 4.5 2H7.5C8.03043 2 8.53914 2.21071 8.91421 2.58579C9.28929 2.96086 9.5 3.46957 9.5 4V7Z" fill="#595959"/>
<path d="M20.5 0H17.5C16.4391 0 15.4217 0.421428 14.6716 1.17157C13.9214 1.92172 13.5 2.93914 13.5 4V7C13.5 8.06087 13.9214 9.07829 14.6716 9.82843C15.4217 10.5786 16.4391 11 17.5 11H20.5C21.5609 11 22.5783 10.5786 23.3284 9.82843C24.0786 9.07829 24.5 8.06087 24.5 7V4C24.5 2.93914 24.0786 1.92172 23.3284 1.17157C22.5783 0.421428 21.5609 0 20.5 0V0ZM22.5 7C22.5 7.53044 22.2893 8.03915 21.9142 8.41422C21.5391 8.78929 21.0304 9.00001 20.5 9.00001H17.5C16.9696 9.00001 16.4609 8.78929 16.0858 8.41422C15.7107 8.03915 15.5 7.53044 15.5 7V4C15.5 3.46957 15.7107 2.96086 16.0858 2.58579C16.4609 2.21072 16.9696 2 17.5 2H20.5C21.0304 2 21.5391 2.21072 21.9142 2.58579C22.2893 2.96086 22.5 3.46957 22.5 4V7Z" fill="#595959"/>
<path d="M7.5 13H4.5C3.43913 13 2.42172 13.4214 1.67157 14.1716C0.921427 14.9217 0.5 15.9391 0.5 17L0.5 20C0.5 21.0609 0.921427 22.0783 1.67157 22.8284C2.42172 23.5786 3.43913 24 4.5 24H7.5C8.56087 24 9.57828 23.5786 10.3284 22.8284C11.0786 22.0783 11.5 21.0609 11.5 20V17C11.5 15.9391 11.0786 14.9217 10.3284 14.1716C9.57828 13.4214 8.56087 13 7.5 13ZM9.5 20C9.5 20.5304 9.28929 21.0392 8.91421 21.4142C8.53914 21.7893 8.03043 22 7.5 22H4.5C3.96957 22 3.46086 21.7893 3.08579 21.4142C2.71071 21.0392 2.5 20.5304 2.5 20V17C2.5 16.4696 2.71071 15.9609 3.08579 15.5858C3.46086 15.2107 3.96957 15 4.5 15H7.5C8.03043 15 8.53914 15.2107 8.91421 15.5858C9.28929 15.9609 9.5 16.4696 9.5 17V20Z" fill="#595959"/>
<path d="M20.5 13H17.5C16.4391 13 15.4217 13.4214 14.6716 14.1716C13.9214 14.9217 13.5 15.9391 13.5 17V20C13.5 21.0609 13.9214 22.0783 14.6716 22.8284C15.4217 23.5786 16.4391 24 17.5 24H20.5C21.5609 24 22.5783 23.5786 23.3284 22.8284C24.0786 22.0783 24.5 21.0609 24.5 20V17C24.5 15.9391 24.0786 14.9217 23.3284 14.1716C22.5783 13.4214 21.5609 13 20.5 13ZM22.5 20C22.5 20.5304 22.2893 21.0392 21.9142 21.4142C21.5391 21.7893 21.0304 22 20.5 22H17.5C16.9696 22 16.4609 21.7893 16.0858 21.4142C15.7107 21.0392 15.5 20.5304 15.5 20V17C15.5 16.4696 15.7107 15.9609 16.0858 15.5858C16.4609 15.2107 16.9696 15 17.5 15H20.5C21.0304 15 21.5391 15.2107 21.9142 15.5858C22.2893 15.9609 22.5 16.4696 22.5 17V20Z" fill="#595959"/>
</g>
<defs>
<clipPath id="clip0_864_2363">
<rect width="24" height="24" fill="white" transform="translate(0.5)"/>
</clipPath>
</defs>
</svg>
