<svg width="25" height="24" viewBox="0 0 25 24" fill="none" xmlns="http://www.w3.org/2000/svg">
<g clip-path="url(#clip0_1332_1505)">
<path d="M23.621 9.06911L16.036 1.48311C15.0973 0.5471 13.8257 0.0214844 12.5 0.0214844C11.1744 0.0214844 9.90277 0.5471 8.96401 1.48311L1.37901 9.06911C1.09944 9.3469 0.877782 9.67741 0.726895 10.0415C0.576007 10.4056 0.49889 10.796 0.500012 11.1901V21.0071C0.500012 21.8028 0.816083 22.5658 1.37869 23.1284C1.9413 23.691 2.70436 24.0071 3.50001 24.0071H21.5C22.2957 24.0071 23.0587 23.691 23.6213 23.1284C24.1839 22.5658 24.5 21.8028 24.5 21.0071V11.1901C24.5011 10.796 24.424 10.4056 24.2731 10.0415C24.1222 9.67741 23.9006 9.3469 23.621 9.06911ZM15.5 22.0071H9.50001V18.0731C9.50001 17.2775 9.81608 16.5144 10.3787 15.9518C10.9413 15.3892 11.7044 15.0731 12.5 15.0731C13.2957 15.0731 14.0587 15.3892 14.6213 15.9518C15.1839 16.5144 15.5 17.2775 15.5 18.0731V22.0071ZM22.5 21.0071C22.5 21.2723 22.3947 21.5267 22.2071 21.7142C22.0196 21.9018 21.7652 22.0071 21.5 22.0071H17.5V18.0731C17.5 16.747 16.9732 15.4753 16.0355 14.5376C15.0979 13.5999 13.8261 13.0731 12.5 13.0731C11.1739 13.0731 9.90216 13.5999 8.96448 14.5376C8.0268 15.4753 7.50001 16.747 7.50001 18.0731V22.0071H3.50001C3.2348 22.0071 2.98044 21.9018 2.79291 21.7142C2.60537 21.5267 2.50001 21.2723 2.50001 21.0071V11.1901C2.50094 10.9251 2.6062 10.6711 2.79301 10.4831L10.378 2.90011C10.9417 2.33904 11.7047 2.02405 12.5 2.02405C13.2953 2.02405 14.0583 2.33904 14.622 2.90011L22.207 10.4861C22.3931 10.6734 22.4983 10.9261 22.5 11.1901V21.0071Z" fill="#8C8C8C"/>
</g>
<defs>
<clipPath id="clip0_1332_1505">
<rect width="24" height="24" fill="white" transform="translate(0.5)"/>
</clipPath>
</defs>
</svg>
