<svg width="25" height="24" viewBox="0 0 25 24" fill="none" xmlns="http://www.w3.org/2000/svg">
<g clip-path="url(#clip0_1336_1737)">
<path d="M9.25 14H15.25C15.5152 14 15.7696 13.8947 15.9571 13.7071C16.1446 13.5196 16.25 13.2652 16.25 13C16.25 12.7348 16.1446 12.4804 15.9571 12.2929C15.7696 12.1054 15.5152 12 15.25 12H9.25C8.98478 12 8.73043 12.1054 8.54289 12.2929C8.35536 12.4804 8.25 12.7348 8.25 13C8.25 13.2652 8.35536 13.5196 8.54289 13.7071C8.73043 13.8947 8.98478 14 9.25 14Z" fill="#8C8C8C"/>
<path d="M19.25 0H5.25C3.92441 0.00158786 2.65356 0.528882 1.71622 1.46622C0.778882 2.40356 0.251588 3.67441 0.25 5L0.25 6C0.250291 6.42174 0.339501 6.83868 0.511809 7.22362C0.684117 7.60856 0.935652 7.95284 1.25 8.234V19C1.25159 20.3256 1.77888 21.5964 2.71622 22.5338C3.65356 23.4711 4.92441 23.9984 6.25 24H18.25C19.5756 23.9984 20.8464 23.4711 21.7838 22.5338C22.7211 21.5964 23.2484 20.3256 23.25 19V8.234C23.5643 7.95284 23.8159 7.60856 23.9882 7.22362C24.1605 6.83868 24.2497 6.42174 24.25 6V5C24.2484 3.67441 23.7211 2.40356 22.7838 1.46622C21.8464 0.528882 20.5756 0.00158786 19.25 0V0ZM2.25 5C2.25 4.20435 2.56607 3.44129 3.12868 2.87868C3.69129 2.31607 4.45435 2 5.25 2H19.25C20.0456 2 20.8087 2.31607 21.3713 2.87868C21.9339 3.44129 22.25 4.20435 22.25 5V6C22.25 6.26522 22.1446 6.51957 21.9571 6.70711C21.7696 6.89464 21.5152 7 21.25 7H3.25C2.98478 7 2.73043 6.89464 2.54289 6.70711C2.35536 6.51957 2.25 6.26522 2.25 6V5ZM21.25 19C21.25 19.7956 20.9339 20.5587 20.3713 21.1213C19.8087 21.6839 19.0456 22 18.25 22H6.25C5.45435 22 4.69129 21.6839 4.12868 21.1213C3.56607 20.5587 3.25 19.7956 3.25 19V9H21.25V19Z" fill="#8C8C8C"/>
</g>
<defs>
<clipPath id="clip0_1336_1737">
<rect width="24" height="24" fill="white" transform="translate(0.25)"/>
</clipPath>
</defs>
</svg>
