<svg width="25" height="24" viewBox="0 0 25 24" fill="none" xmlns="http://www.w3.org/2000/svg">
<g clip-path="url(#clip0_864_1966)">
<path d="M19.25 24H5.25C3.92441 23.9984 2.65356 23.4711 1.71622 22.5338C0.778882 21.5964 0.251588 20.3256 0.25 19L0.25 5C0.251588 3.67441 0.778882 2.40356 1.71622 1.46622C2.65356 0.528882 3.92441 0.00158786 5.25 0L19.25 0C20.5756 0.00158786 21.8464 0.528882 22.7838 1.46622C23.7211 2.40356 24.2484 3.67441 24.25 5V19C24.2484 20.3256 23.7211 21.5964 22.7838 22.5338C21.8464 23.4711 20.5756 23.9984 19.25 24ZM5.25 2C4.45435 2 3.69129 2.31607 3.12868 2.87868C2.56607 3.44129 2.25 4.20435 2.25 5V19C2.25 19.7956 2.56607 20.5587 3.12868 21.1213C3.69129 21.6839 4.45435 22 5.25 22H19.25C20.0456 22 20.8087 21.6839 21.3713 21.1213C21.9339 20.5587 22.25 19.7956 22.25 19V5C22.25 4.20435 21.9339 3.44129 21.3713 2.87868C20.8087 2.31607 20.0456 2 19.25 2H5.25ZM9.592 17.005C9.17513 17.0036 8.76601 16.8922 8.406 16.682C8.05034 16.4784 7.75515 16.184 7.55063 15.8289C7.34611 15.4738 7.2396 15.0708 7.242 14.661V9.339C7.24166 8.92914 7.34911 8.52641 7.55358 8.1712C7.75805 7.81599 8.05234 7.52079 8.40692 7.31524C8.7615 7.10968 9.1639 7.00099 9.57376 7.00007C9.98361 6.99915 10.3865 7.10604 10.742 7.31L16.02 9.945C16.3866 10.1429 16.6936 10.4353 16.9092 10.7918C17.1248 11.1483 17.2412 11.556 17.2462 11.9726C17.2512 12.3892 17.1446 12.7995 16.9377 13.1611C16.7307 13.5227 16.4308 13.8223 16.069 14.029L10.693 16.716C10.3577 16.9073 9.978 17.0069 9.592 17.005ZM9.567 9.005C9.51189 9.00498 9.45774 9.01946 9.41 9.047C9.35814 9.07585 9.3151 9.11826 9.2855 9.1697C9.25591 9.22114 9.24087 9.27966 9.242 9.339V14.661C9.24234 14.7195 9.25788 14.7768 9.28709 14.8274C9.3163 14.8781 9.35818 14.9202 9.40861 14.9498C9.45905 14.9794 9.5163 14.9953 9.57475 14.996C9.6332 14.9968 9.69084 14.9823 9.742 14.954L15.118 12.266C15.158 12.2347 15.1899 12.1941 15.2108 12.1478C15.2317 12.1015 15.241 12.0507 15.238 12C15.2393 11.9405 15.2242 11.8818 15.1944 11.8304C15.1646 11.7789 15.1212 11.7365 15.069 11.708L9.795 9.073C9.72624 9.03082 9.64763 9.00737 9.567 9.005Z" fill="#595959"/>
</g>
<defs>
<clipPath id="clip0_864_1966">
<rect width="24" height="24" fill="white" transform="translate(0.25)"/>
</clipPath>
</defs>
</svg>
