<svg width="16" height="16" viewBox="0 0 16 16" fill="none" xmlns="http://www.w3.org/2000/svg">
<g clip-path="url(#clip0_1213_21231)">
<path d="M0 12.6665C0.00105857 13.5502 0.352588 14.3975 0.97748 15.0224C1.60237 15.6472 2.4496 15.9988 3.33333 15.9998H12.6667C13.5504 15.9988 14.3976 15.6472 15.0225 15.0224C15.6474 14.3975 15.9989 13.5502 16 12.6665V6.6665H0V12.6665ZM11.3333 9.6665C11.5311 9.6665 11.7245 9.72515 11.8889 9.83503C12.0534 9.94492 12.1815 10.1011 12.2572 10.2838C12.3329 10.4665 12.3527 10.6676 12.3141 10.8616C12.2755 11.0556 12.1803 11.2338 12.0404 11.3736C11.9006 11.5135 11.7224 11.6087 11.5284 11.6473C11.3344 11.6859 11.1334 11.6661 10.9507 11.5904C10.7679 11.5147 10.6117 11.3865 10.5019 11.2221C10.392 11.0576 10.3333 10.8643 10.3333 10.6665C10.3333 10.4013 10.4387 10.1469 10.6262 9.9594C10.8138 9.77186 11.0681 9.6665 11.3333 9.6665ZM8 9.6665C8.19778 9.6665 8.39112 9.72515 8.55557 9.83503C8.72002 9.94492 8.84819 10.1011 8.92388 10.2838C8.99957 10.4665 9.01937 10.6676 8.98079 10.8616C8.9422 11.0556 8.84696 11.2338 8.70711 11.3736C8.56726 11.5135 8.38907 11.6087 8.19509 11.6473C8.00111 11.6859 7.80004 11.6661 7.61732 11.5904C7.43459 11.5147 7.27841 11.3865 7.16853 11.2221C7.05865 11.0576 7 10.8643 7 10.6665C7 10.4013 7.10536 10.1469 7.29289 9.9594C7.48043 9.77186 7.73478 9.6665 8 9.6665ZM4.66667 9.6665C4.86445 9.6665 5.05779 9.72515 5.22224 9.83503C5.38669 9.94492 5.51486 10.1011 5.59055 10.2838C5.66623 10.4665 5.68604 10.6676 5.64745 10.8616C5.60887 11.0556 5.51363 11.2338 5.37377 11.3736C5.23392 11.5135 5.05574 11.6087 4.86176 11.6473C4.66778 11.6859 4.46671 11.6661 4.28398 11.5904C4.10126 11.5147 3.94508 11.3865 3.8352 11.2221C3.72532 11.0576 3.66667 10.8643 3.66667 10.6665C3.66667 10.4013 3.77202 10.1469 3.95956 9.9594C4.1471 9.77186 4.40145 9.6665 4.66667 9.6665Z" fill="#7266BA"/>
<path d="M12.6667 1.33333H12V0.666667C12 0.489856 11.9298 0.320286 11.8047 0.195262C11.6797 0.0702379 11.5101 0 11.3333 0C11.1565 0 10.987 0.0702379 10.8619 0.195262C10.7369 0.320286 10.6667 0.489856 10.6667 0.666667V1.33333H5.33333V0.666667C5.33333 0.489856 5.2631 0.320286 5.13807 0.195262C5.01305 0.0702379 4.84348 0 4.66667 0C4.48986 0 4.32029 0.0702379 4.19526 0.195262C4.07024 0.320286 4 0.489856 4 0.666667V1.33333H3.33333C2.4496 1.33439 1.60237 1.68592 0.97748 2.31081C0.352588 2.93571 0.00105857 3.78294 0 4.66667L0 5.33333H16V4.66667C15.9989 3.78294 15.6474 2.93571 15.0225 2.31081C14.3976 1.68592 13.5504 1.33439 12.6667 1.33333Z" fill="#7266BA"/>
</g>
<defs>
<clipPath id="clip0_1213_21231">
<rect width="16" height="16" fill="white"/>
</clipPath>
</defs>
</svg>
