<svg width="12" height="10" viewBox="0 0 12 10" fill="none" xmlns="http://www.w3.org/2000/svg">
<path fill-rule="evenodd" clip-rule="evenodd" d="M12 6.935V7C11.9992 7.6628 11.7356 8.29822 11.2669 8.76689C10.7982 9.23556 10.1628 9.49921 9.5 9.5H1.5C1.10217 9.5 0.720644 9.34196 0.439339 9.06066C0.158035 8.77936 0 8.39782 0 8V6.935C0.00212669 6.71123 0.0785065 6.4945 0.21715 6.31885C0.355793 6.14319 0.548847 6.01855 0.765999 5.9645C0.977419 5.90661 1.16396 5.78086 1.29693 5.6066C1.42989 5.43233 1.50192 5.2192 1.50192 5C1.50192 4.7808 1.42989 4.56767 1.29693 4.3934C1.16396 4.21914 0.977419 4.09339 0.765999 4.0355C0.548847 3.98145 0.355793 3.85681 0.21715 3.68115C0.0785065 3.5055 0.00212669 3.28877 0 3.065V2C0 1.60218 0.158035 1.22064 0.439339 0.93934C0.720644 0.658035 1.10217 0.5 1.5 0.5L9.5 0.5C10.1628 0.500794 10.7982 0.764441 11.2669 1.23311C11.7356 1.70178 11.9992 2.3372 12 3V3.065C11.9979 3.28877 11.9215 3.5055 11.7829 3.68115C11.6442 3.85681 11.4512 3.98145 11.234 4.0355C11.0226 4.09339 10.836 4.21914 10.7031 4.3934C10.5701 4.56767 10.4981 4.7808 10.4981 5C10.4981 5.2192 10.5701 5.43233 10.7031 5.6066C10.836 5.78086 11.0226 5.90661 11.234 5.9645C11.4512 6.01855 11.6442 6.14319 11.7829 6.31885C11.9215 6.4945 11.9979 6.71123 12 6.935ZM1.0315 6.9285L1 8C1 8.13261 1.05268 8.25979 1.14645 8.35355C1.24022 8.44732 1.36739 8.5 1.5 8.5H3.5V7.5C3.5 7.36739 3.55268 7.24021 3.64645 7.14645C3.74022 7.05268 3.86739 7 4 7C4.13261 7 4.25978 7.05268 4.35355 7.14645C4.44732 7.24021 4.5 7.36739 4.5 7.5L4.5 8.5H9.5C9.89782 8.5 10.2794 8.34196 10.5607 8.06066C10.842 7.77936 11 7.39782 11 7V6.9465C10.572 6.82981 10.1939 6.57652 9.92312 6.22515C9.65235 5.87378 9.50377 5.44358 9.5 5C9.50074 4.56233 9.64467 4.13692 9.90982 3.78871C10.175 3.4405 10.5468 3.18861 10.9685 3.0715L11 3C11 2.60218 10.842 2.22064 10.5607 1.93934C10.2794 1.65804 9.89782 1.5 9.5 1.5L4.5 1.5V2.5C4.5 2.63261 4.44732 2.75979 4.35355 2.85355C4.25978 2.94732 4.13261 3 4 3C3.86739 3 3.74022 2.94732 3.64645 2.85355C3.55268 2.75979 3.5 2.63261 3.5 2.5V1.5L1.5 1.5C1.36739 1.5 1.24022 1.55268 1.14645 1.64645C1.05268 1.74021 1 1.86739 1 2V3.065C1.42615 3.1755 1.80393 3.42353 2.07476 3.77061C2.34559 4.11769 2.49433 4.54444 2.49792 4.98467C2.50151 5.42489 2.35975 5.85401 2.09461 6.20546C1.82948 6.55691 1.45579 6.81106 1.0315 6.9285ZM4.5 4.50003V5.50003C4.5 5.63264 4.44732 5.75981 4.35355 5.85358C4.25978 5.94735 4.13261 6.00003 4 6.00003C3.86739 6.00003 3.74021 5.94735 3.64644 5.85358C3.55267 5.75981 3.49999 5.63264 3.49999 5.50003V4.50003C3.49999 4.36742 3.55267 4.24024 3.64644 4.14648C3.74021 4.05271 3.86739 4.00003 4 4.00003C4.13261 4.00003 4.25978 4.05271 4.35355 4.14648C4.44732 4.24024 4.5 4.36742 4.5 4.50003Z" fill="#FF721F"/>
</svg>
