<svg width="24" height="21" viewBox="0 0 24 21" fill="none" xmlns="http://www.w3.org/2000/svg">
<path fill-rule="evenodd" clip-rule="evenodd" d="M7.405 0.991699C6.56267 0.991699 5.72863 1.15798 4.9507 1.481C4.17303 1.80391 3.46674 2.2771 2.87229 2.87346C0.327258 5.41915 0.270638 9.62833 3.28634 12.7005L11.2929 20.7071C11.4804 20.8946 11.7348 21 12 21C12.2652 21 12.5196 20.8946 12.7071 20.7071L20.7071 12.7071L20.7136 12.7005C23.7293 9.62831 23.6727 5.41916 21.1277 2.87346C20.5333 2.2771 19.827 1.80391 19.0493 1.481C18.2714 1.15798 17.4373 0.991699 16.595 0.991699C15.7527 0.991699 14.9186 1.15798 14.1407 1.481C13.3628 1.80402 12.6563 2.27743 12.0617 2.87408L12.0583 2.87743L12 2.93653L11.9417 2.87742L11.9383 2.87408C11.3438 2.27743 10.6372 1.80402 9.85931 1.481C9.08138 1.15798 8.24733 0.991699 7.405 0.991699Z" fill="#EA4C4C"/>
</svg>
