<svg width="16" height="16" viewBox="0 0 16 16" fill="none" xmlns="http://www.w3.org/2000/svg">
<g clip-path="url(#clip0_1307_25380)">
<path d="M9.33337 4.66675C9.33337 4.93046 9.25518 5.18825 9.10867 5.40751C8.96216 5.62678 8.75392 5.79767 8.51029 5.89859C8.26665 5.99951 7.99856 6.02591 7.73992 5.97447C7.48128 5.92302 7.2437 5.79603 7.05723 5.60956C6.87076 5.42309 6.74377 5.18551 6.69233 4.92687C6.64088 4.66823 6.66728 4.40014 6.7682 4.15651C6.86912 3.91287 7.04002 3.70463 7.25928 3.55813C7.47855 3.41162 7.73633 3.33342 8.00004 3.33342C8.35366 3.33342 8.6928 3.47389 8.94285 3.72394C9.1929 3.97399 9.33337 4.31313 9.33337 4.66675ZM11.3054 8.12275L9.26671 10.1434C9.1013 10.3102 8.9045 10.4426 8.68767 10.5329C8.47084 10.6232 8.23827 10.6698 8.00337 10.6698C7.76848 10.6698 7.53591 10.6232 7.31908 10.5329C7.10225 10.4426 6.90545 10.3102 6.74004 10.1434L4.70271 8.13342C3.82788 7.23153 3.33796 6.02485 3.33646 4.76837C3.33497 3.51189 3.82203 2.30405 4.69471 1.40008C5.12362 0.956944 5.63726 0.604573 6.20508 0.363926C6.77291 0.123278 7.38333 -0.000732422 8.00004 -0.000732422C8.61676 -0.000732422 9.22717 0.123278 9.795 0.363926C10.3628 0.604573 10.8765 0.956944 11.3054 1.40008C12.1767 2.30211 12.6638 3.50726 12.6638 4.76142C12.6638 6.01558 12.1767 7.22073 11.3054 8.12275ZM10.6667 4.66675C10.6667 4.13933 10.5103 3.62376 10.2173 3.18523C9.92428 2.7467 9.5078 2.40491 9.02053 2.20307C8.53326 2.00124 7.99708 1.94843 7.4798 2.05132C6.96252 2.15422 6.48736 2.40819 6.11442 2.78113C5.74148 3.15407 5.48751 3.62923 5.38461 4.14651C5.28172 4.66379 5.33453 5.19997 5.53636 5.68724C5.7382 6.17451 6.07999 6.59099 6.51852 6.884C6.95705 7.17702 7.47262 7.33342 8.00004 7.33342C8.70728 7.33342 9.38556 7.05247 9.88566 6.55237C10.3858 6.05227 10.6667 5.374 10.6667 4.66675ZM13.8354 6.13342C13.5921 7.23525 13.0463 8.24739 12.2594 9.05609L10.2074 11.0914C9.91869 11.3808 9.57581 11.6105 9.19832 11.7673C8.82083 11.9242 8.41614 12.0051 8.00737 12.0054C7.59883 12.0056 7.19426 11.9252 6.81677 11.769C6.43929 11.6127 6.09629 11.3836 5.80737 11.0948L3.76537 9.07942C2.9888 8.28221 2.44378 7.28872 2.18871 6.20542C1.7557 6.36413 1.35979 6.60985 1.02537 6.92742C0.699408 7.23733 0.44029 7.61065 0.26396 8.02441C0.08763 8.43818 -0.00218475 8.88365 4.03546e-05 9.33342V12.0501C0.00144142 12.771 0.235902 13.4721 0.668434 14.0488C1.10097 14.6255 1.70838 15.0469 2.40004 15.2501L4.31337 15.8501C4.63475 15.9501 4.96946 16.0007 5.30604 16.0001C5.61137 15.9997 5.91524 15.958 6.20937 15.8761L10.0627 14.7361C10.4059 14.642 10.7681 14.642 11.1114 14.7361L12.7027 15.2694C13.0949 15.3649 13.5037 15.3701 13.8982 15.2846C14.2926 15.1991 14.6626 15.0252 14.9801 14.7759C15.2976 14.5266 15.5543 14.2086 15.731 13.8456C15.9077 13.4827 15.9997 13.0844 16 12.6808V9.24809C15.9978 8.57063 15.7895 7.90989 15.4029 7.35358C15.0162 6.79728 14.4695 6.37172 13.8354 6.13342Z" fill="#7266BA"/>
</g>
<defs>
<clipPath id="clip0_1307_25380">
<rect width="16" height="16" fill="white"/>
</clipPath>
</defs>
</svg>
