<svg xmlns="http://www.w3.org/2000/svg" xmlns:xlink="http://www.w3.org/1999/xlink" width="112" height="32" viewBox="0 0 112 32">
  <defs>
    <clipPath id="clip-Logo_payon">
      <rect width="112" height="32"/>
    </clipPath>
  </defs>
  <g id="Logo_payon" data-name="Logo payon" clip-path="url(#clip-Logo_payon)">
    <g id="Group_40254" data-name="Group 40254">
      <g id="Group_40253" data-name="Group 40253" transform="translate(0 1.782)">
        <path id="Path_12540" data-name="Path 12540" d="M4386.95-2375.509h0a10.511,10.511,0,0,0-5.308-1.38,10.311,10.311,0,0,0-5.274,1.382,10.218,10.218,0,0,0-3.745,3.782,10.577,10.577,0,0,0-1.38,5.344v16.585a2.175,2.175,0,0,0,.649,1.631,2.225,2.225,0,0,0,1.6.621,2.211,2.211,0,0,0,1.626-.625,2.212,2.212,0,0,0,.625-1.626v-8.8a9.333,9.333,0,0,0,2.523,1.77,9.393,9.393,0,0,0,4.1.912,9.306,9.306,0,0,0,4.954-1.368,9.629,9.629,0,0,0,3.489-3.772,11.3,11.3,0,0,0,1.264-5.332,10.691,10.691,0,0,0-1.361-5.342A10.012,10.012,0,0,0,4386.95-2375.509Zm.769,9.127a6.7,6.7,0,0,1-.805,3.281,6.063,6.063,0,0,1-2.186,2.29,5.867,5.867,0,0,1-3.086.834,5.867,5.867,0,0,1-3.086-.834,5.921,5.921,0,0,1-2.166-2.287,6.812,6.812,0,0,1-.789-3.284,6.924,6.924,0,0,1,.79-3.3,5.9,5.9,0,0,1,2.165-2.3,5.875,5.875,0,0,1,3.086-.834,5.877,5.877,0,0,1,3.086.834,6.036,6.036,0,0,1,2.185,2.306A6.8,6.8,0,0,1,4387.719-2366.381Z" transform="translate(-4371.243 2376.889)" fill="#1765aa"/>
        <path id="Path_12541" data-name="Path 12541" d="M4474.663-2375.507h0a10.307,10.307,0,0,0-5.273-1.382,10.508,10.508,0,0,0-5.308,1.38,10.011,10.011,0,0,0-3.766,3.785,10.692,10.692,0,0,0-1.361,5.342,11.294,11.294,0,0,0,1.264,5.332,9.62,9.62,0,0,0,3.489,3.772,9.309,9.309,0,0,0,4.955,1.368,9.4,9.4,0,0,0,4.1-.912,9.347,9.347,0,0,0,2.523-1.77v.321a2.188,2.188,0,0,0,.644,1.608,2.188,2.188,0,0,0,1.608.644,2.194,2.194,0,0,0,1.608-.644,2.191,2.191,0,0,0,.643-1.608v-8.111a10.58,10.58,0,0,0-1.38-5.344A10.227,10.227,0,0,0,4474.663-2375.507Zm.768,9.126a6.822,6.822,0,0,1-.789,3.285,5.931,5.931,0,0,1-2.166,2.286,5.868,5.868,0,0,1-3.086.834,5.868,5.868,0,0,1-3.086-.834,6.057,6.057,0,0,1-2.186-2.29,6.693,6.693,0,0,1-.805-3.281,6.8,6.8,0,0,1,.807-3.3,6.028,6.028,0,0,1,2.185-2.305,5.874,5.874,0,0,1,3.086-.834,5.876,5.876,0,0,1,3.086.834,5.908,5.908,0,0,1,2.165,2.3A6.934,6.934,0,0,1,4475.43-2366.381Z" transform="translate(-4435.767 2376.889)" fill="#1765aa"/>
        <path id="Path_12542" data-name="Path 12542" d="M4561.327-2376.126a2.488,2.488,0,0,0-1.026-.213,1.9,1.9,0,0,0-1.781,1.291L4553-2362.613l-6.279-12.489a2.031,2.031,0,0,0-1.881-1.238,2.187,2.187,0,0,0-.894.182,2.318,2.318,0,0,0-.918.745,1.847,1.847,0,0,0-.367,1.106,1.939,1.939,0,0,0,.228.949l8.094,15.36-3.552,7.992a2.345,2.345,0,0,0-.259,1.05,1.9,1.9,0,0,0,1.331,1.782,2.642,2.642,0,0,0,1.03.251,1.851,1.851,0,0,0,1.78-1.363l11.132-25.028a2.645,2.645,0,0,0,.25-1.029A1.859,1.859,0,0,0,4561.327-2376.126Z" transform="translate(-4497.347 2376.484)" fill="#1765aa"/>
      </g>
      <path id="Path_12543" data-name="Path 12543" d="M4652.752-2361.1c-.008-.1-.019-.2-.029-.3a10.469,10.469,0,0,0-1.263-4.018,9.847,9.847,0,0,0-1.869-2.382,2.159,2.159,0,0,0-1.245-.394,2.176,2.176,0,0,0-2.163,1.967v.415a2.133,2.133,0,0,0,.31.925,5.817,5.817,0,0,1,1.179,1.557,6.782,6.782,0,0,1,.7,2.218c.011.074.019.148.026.219.019.148.029.3.037.447s.013.3.013.46-.005.307-.013.457-.019.3-.037.447c-.008.074-.016.148-.026.219-.013.1-.029.2-.048.3a6.574,6.574,0,0,1-.647,1.9v0a5.663,5.663,0,0,1-2.144,2.263,5.805,5.805,0,0,1-2.342.772s0,0-.008,0c-.129.016-.259.027-.391.035l-.2.008c-.071,0-.146,0-.217,0s-.119,0-.18,0l-.2-.008c-.132-.008-.262-.021-.391-.035,0,0-.005,0-.008,0a5.853,5.853,0,0,1-2.305-.772,5.8,5.8,0,0,1-2.165-2.268,6.437,6.437,0,0,1-.664-1.9c-.019-.1-.034-.2-.047-.3-.011-.071-.019-.145-.026-.219-.019-.146-.029-.3-.037-.447s-.013-.3-.013-.457,0-.307.013-.46.019-.3.037-.447c.008-.074.016-.148.026-.219a6.739,6.739,0,0,1,.714-2.215,5.967,5.967,0,0,1,.655-.986s0,0,0-.005a5.574,5.574,0,0,1,.449-.484s0,0,0,0c.018-.027.034-.056.05-.082a2.133,2.133,0,0,0,.31-.925c0-.008,0-.016,0-.024v-.37a.064.064,0,0,0,0-.021,2.176,2.176,0,0,0-2.163-1.967,2.158,2.158,0,0,0-1.245.394c-.037.024-.071.05-.106.077q-.179.166-.349.349a9.575,9.575,0,0,0-1.433,1.959,10.577,10.577,0,0,0-1.245,4.015c-.01.1-.021.2-.029.3q-.048.547-.048,1.118a10.97,10.97,0,0,0,1.322,5.393c.056.1.111.2.169.293q.174.29.365.563a9.054,9.054,0,0,0,.666.851c.177.2.362.394.553.579,0,.005.008.008.013.013.146.138.293.272.447.4a10.03,10.03,0,0,0,1.5,1.036,10.229,10.229,0,0,0,2.741,1.058c.14.032.283.061.426.087a10.42,10.42,0,0,0,1.163.156c.228.019.46.031.692.037.111,0,.222.005.336.005s.249,0,.373-.005c.233-.008.465-.018.693-.037.4-.035.782-.088,1.163-.156.143-.027.286-.055.426-.087a9.967,9.967,0,0,0,2.763-1.058,9.645,9.645,0,0,0,1.483-1.036c.153-.13.3-.262.447-.4a.031.031,0,0,1,.013-.013c.193-.185.375-.378.552-.579a9.455,9.455,0,0,0,.667-.851q.19-.273.365-.563c.058-.1.114-.193.169-.293a10.95,10.95,0,0,0,1.322-5.393Q4652.8-2360.555,4652.752-2361.1Z" transform="translate(-4563.042 2372.273)" fill="#77a841"/>
      <path id="Path_12544" data-name="Path 12544" d="M4739.475-2372.545h0a8.117,8.117,0,0,0-3.287-3.342,9.7,9.7,0,0,0-4.7-1.14,9.616,9.616,0,0,0-3.566.665,8.657,8.657,0,0,0-2.257,1.312,2.105,2.105,0,0,0-.589-1.169,2.212,2.212,0,0,0-1.626-.625,2.226,2.226,0,0,0-1.6.621,2.173,2.173,0,0,0-.648,1.631v16.222a2.19,2.19,0,0,0,.643,1.607,2.19,2.19,0,0,0,1.608.644,2.175,2.175,0,0,0,1.631-.648,2.227,2.227,0,0,0,.621-1.6v-10.257a3.72,3.72,0,0,1,.642-2.143,4.571,4.571,0,0,1,1.81-1.539,5.844,5.844,0,0,1,2.607-.577,5.478,5.478,0,0,1,3.927,1.4,5.528,5.528,0,0,1,1.459,4.169v8.947a2.188,2.188,0,0,0,.643,1.607,2.188,2.188,0,0,0,1.608.644,2.19,2.19,0,0,0,1.608-.643,2.19,2.19,0,0,0,.644-1.608v-8.947A10.922,10.922,0,0,0,4739.475-2372.545Z" transform="translate(-4628.684 2378.772)" fill="#77a841"/>
      <path id="Path_12545" data-name="Path 12545" d="M4665.1-2383.407a2.225,2.225,0,0,0-1.6.621,2.175,2.175,0,0,0-.648,1.631v7.076a2.187,2.187,0,0,0,.643,1.608,2.189,2.189,0,0,0,1.608.644,2.175,2.175,0,0,0,1.631-.649,2.223,2.223,0,0,0,.621-1.6v-7.076a2.212,2.212,0,0,0-.625-1.626A2.213,2.213,0,0,0,4665.1-2383.407Z" transform="translate(-4585.762 2383.466)" fill="#1765aa"/>
    </g>
  </g>
</svg>
