<svg width="12" height="12" viewBox="0 0 12 12" fill="none" xmlns="http://www.w3.org/2000/svg">
<g clip-path="url(#clip0_756_1110)">
<path d="M9 6C8.47319 6.00061 7.95554 5.86233 7.49921 5.5991C7.04289 5.33586 6.66402 4.95698 6.40082 4.50064C6.13761 4.0443 5.99936 3.52663 6.00001 2.99982C6.00065 2.47302 6.14017 1.95569 6.4045 1.5H2.121L2.1 1.324C2.05691 0.959299 1.88153 0.623077 1.60709 0.379052C1.33266 0.135027 0.978237 0.000156418 0.611 0L0.5 0C0.367392 0 0.240215 0.0526784 0.146447 0.146447C0.0526784 0.240215 0 0.367392 0 0.5C0 0.632608 0.0526784 0.759785 0.146447 0.853553C0.240215 0.947322 0.367392 1 0.5 1H0.611C0.733467 1.00002 0.851669 1.04498 0.943186 1.12636C1.0347 1.20774 1.09317 1.31987 1.1075 1.4415L1.7955 7.2915C1.86693 7.89989 2.15924 8.46089 2.61695 8.868C3.07467 9.27512 3.66593 9.50001 4.2785 9.5H9.5C9.63261 9.5 9.75979 9.44732 9.85355 9.35355C9.94732 9.25979 10 9.13261 10 9C10 8.86739 9.94732 8.74021 9.85355 8.64645C9.75979 8.55268 9.63261 8.5 9.5 8.5H4.2785C3.96894 8.49923 3.6672 8.40271 3.41467 8.22367C3.16214 8.04464 2.97119 7.79185 2.868 7.5H8.8285C9.41465 7.50004 9.98217 7.29412 10.4319 6.91822C10.8817 6.54232 11.185 6.02035 11.289 5.4435L11.408 4.784C11.1299 5.16108 10.7671 5.46757 10.3488 5.67878C9.93057 5.88999 9.46856 6.00002 9 6Z" fill="#1F1F1F"/>
<path d="M3.5 12.0002C4.05228 12.0002 4.5 11.5525 4.5 11.0002C4.5 10.448 4.05228 10.0002 3.5 10.0002C2.94771 10.0002 2.5 10.448 2.5 11.0002C2.5 11.5525 2.94771 12.0002 3.5 12.0002Z" fill="#1F1F1F"/>
<path d="M8.5 12.0002C9.05228 12.0002 9.5 11.5525 9.5 11.0002C9.5 10.448 9.05228 10.0002 8.5 10.0002C7.94771 10.0002 7.5 10.448 7.5 11.0002C7.5 11.5525 7.94771 12.0002 8.5 12.0002Z" fill="#1F1F1F"/>
<path d="M7.5 3.50024H8.5V4.50024C8.5 4.63285 8.55268 4.76003 8.64644 4.8538C8.74021 4.94757 8.86739 5.00024 9 5.00024C9.1326 5.00024 9.25978 4.94757 9.35355 4.8538C9.44732 4.76003 9.5 4.63285 9.5 4.50024V3.50024H10.5C10.6326 3.50024 10.7598 3.44757 10.8535 3.3538C10.9473 3.26003 11 3.13285 11 3.00024C11 2.86764 10.9473 2.74046 10.8535 2.64669C10.7598 2.55292 10.6326 2.50024 10.5 2.50024H9.5V1.50024C9.5 1.36764 9.44732 1.24046 9.35355 1.14669C9.25978 1.05292 9.1326 1.00024 9 1.00024C8.86739 1.00024 8.74021 1.05292 8.64644 1.14669C8.55268 1.24046 8.5 1.36764 8.5 1.50024V2.50024H7.5C7.36739 2.50024 7.24021 2.55292 7.14645 2.64669C7.05268 2.74046 7 2.86764 7 3.00024C7 3.13285 7.05268 3.26003 7.14645 3.3538C7.24021 3.44757 7.36739 3.50024 7.5 3.50024Z" fill="#1F1F1F"/>
</g>
<defs>
<clipPath id="clip0_756_1110">
<rect width="12" height="12" fill="white"/>
</clipPath>
</defs>
</svg>
