<svg width="12" height="12" viewBox="0 0 12 12" fill="none" xmlns="http://www.w3.org/2000/svg">
<path d="M7.99991 11.4996C7.99991 11.4008 8.02923 11.3041 8.08417 11.2219C8.13911 11.1396 8.2172 11.0756 8.30857 11.0377C8.39993 10.9999 8.50046 10.99 8.59745 11.0093C8.69444 11.0285 8.78354 11.0762 8.85346 11.1461C8.92339 11.216 8.97101 11.3051 8.9903 11.4021C9.00959 11.4991 8.99969 11.5996 8.96185 11.691C8.924 11.7824 8.85992 11.8604 8.77769 11.9154C8.69547 11.9703 8.5988 11.9996 8.49991 11.9996C8.3673 11.9996 8.24012 11.947 8.14635 11.8532C8.05259 11.7594 7.99991 11.6323 7.99991 11.4996ZM10.2674 10.4386C10.3611 10.3449 10.4138 10.2177 10.4138 10.0851C10.4138 9.95257 10.3611 9.82541 10.2674 9.73165C9.79859 9.26297 9.16282 8.99968 8.49991 8.99968C7.837 8.99968 7.20123 9.26297 6.73241 9.73165C6.64133 9.82595 6.59093 9.95225 6.59207 10.0833C6.59321 10.2144 6.64579 10.3399 6.7385 10.4326C6.8312 10.5253 6.95661 10.5778 7.08771 10.579C7.21881 10.5801 7.34511 10.5297 7.43941 10.4386C7.72525 10.1662 8.105 10.0142 8.49991 10.0142C8.89481 10.0142 9.27457 10.1662 9.56041 10.4386C9.65417 10.5324 9.78133 10.585 9.91391 10.585C10.0465 10.585 10.1736 10.5324 10.2674 10.4386ZM11.6819 9.02465C11.7756 8.93088 11.8283 8.80373 11.8283 8.67115C11.8283 8.53857 11.7756 8.41141 11.6819 8.31765C10.8373 7.47495 9.69299 7.00168 8.49991 7.00168C7.30683 7.00168 6.16247 7.47495 5.31791 8.31765C5.22683 8.41195 5.17643 8.53825 5.17757 8.66935C5.17871 8.80045 5.23129 8.92585 5.324 9.01856C5.4167 9.11126 5.54211 9.16385 5.67321 9.16499C5.80431 9.16613 5.93061 9.11573 6.02491 9.02465C6.68201 8.36954 7.57203 8.00167 8.49991 8.00167C9.42778 8.00167 10.3178 8.36954 10.9749 9.02465C11.0687 9.11838 11.1958 9.17104 11.3284 9.17104C11.461 9.17104 11.5881 9.11838 11.6819 9.02465ZM4.61091 9.73165C4.47159 9.59236 4.36108 9.42699 4.28568 9.24498C4.21029 9.06298 4.17148 8.8679 4.17148 8.6709C4.17148 8.4739 4.21029 8.27882 4.28568 8.09681C4.36108 7.91481 4.47159 7.74944 4.61091 7.61015C5.57742 6.64634 6.86743 6.07581 8.23075 6.0092C9.59406 5.94259 10.9335 6.38465 11.9894 7.24965C11.9422 6.43854 11.6474 5.66141 11.1447 5.02306C10.6421 4.38471 9.95581 3.91583 9.17841 3.67965C9.09265 3.65312 9.01479 3.60577 8.9518 3.54181C8.88881 3.47786 8.84263 3.3993 8.81741 3.31315C8.55283 2.46296 8.01215 1.72535 7.281 1.21717C6.54986 0.708984 5.67006 0.459279 4.78096 0.507608C3.89187 0.555937 3.04432 0.899537 2.37257 1.48398C1.70081 2.06842 1.24327 2.86029 1.07241 3.73415C0.896632 4.61749 1.03829 5.53452 1.47241 6.32365C0.966632 6.58477 0.555362 6.99778 0.296366 7.50465C0.0373713 8.01152 -0.0563356 8.58679 0.0284082 9.14965C0.158819 9.80351 0.508925 10.3931 1.02061 10.8206C1.53229 11.248 2.17477 11.4877 2.84141 11.4996H6.39141C5.55791 10.6731 4.74341 9.86415 4.61091 9.73165Z" fill="#262626"/>
</svg>
