<svg width="24" height="24" viewBox="0 0 24 24" fill="none" xmlns="http://www.w3.org/2000/svg">
<path fill-rule="evenodd" clip-rule="evenodd" d="M5 4C4.73478 4 4.48043 4.10536 4.29289 4.29289C4.10536 4.48043 4 4.73478 4 5V19C4 19.2652 4.10536 19.5196 4.29289 19.7071C4.48043 19.8946 4.73478 20 5 20H19C19.2652 20 19.5196 19.8946 19.7071 19.7071C19.8946 19.5196 20 19.2652 20 19V11C20 10.4477 20.4477 10 21 10C21.5523 10 22 10.4477 22 11V19C22 19.7957 21.6839 20.5587 21.1213 21.1213C20.5587 21.6839 19.7957 22 19 22H5C4.20435 22 3.44129 21.6839 2.87868 21.1213C2.31607 20.5587 2 19.7957 2 19V5C2 4.20435 2.31607 3.44129 2.87868 2.87868C3.44129 2.31607 4.20435 2 5 2H13C13.5523 2 14 2.44772 14 3C14 3.55228 13.5523 4 13 4H5Z" fill="#7266BA"/>
<path fill-rule="evenodd" clip-rule="evenodd" d="M6.73223 6.73223C7.20107 6.26339 7.83696 6 8.5 6C9.16304 6 9.79893 6.26339 10.2678 6.73223C10.7366 7.20107 11 7.83696 11 8.5C11 9.16304 10.7366 9.79893 10.2678 10.2678C9.79893 10.7366 9.16304 11 8.5 11C7.83696 11 7.20107 10.7366 6.73223 10.2678C6.26339 9.79893 6 9.16304 6 8.5C6 7.83696 6.26339 7.20107 6.73223 6.73223ZM8.5 8C8.36739 8 8.24021 8.05268 8.14645 8.14645C8.05268 8.24021 8 8.36739 8 8.5C8 8.63261 8.05268 8.75979 8.14645 8.85355C8.24021 8.94732 8.36739 9 8.5 9C8.63261 9 8.75979 8.94732 8.85355 8.85355C8.94732 8.75979 9 8.63261 9 8.5C9 8.36739 8.94732 8.24021 8.85355 8.14645C8.75979 8.05268 8.63261 8 8.5 8Z" fill="#7266BA"/>
<path fill-rule="evenodd" clip-rule="evenodd" d="M15.2929 9.29289C15.6834 8.90237 16.3166 8.90237 16.7071 9.29289L21.7071 14.2929C22.0976 14.6834 22.0976 15.3166 21.7071 15.7071C21.3166 16.0976 20.6834 16.0976 20.2929 15.7071L16 11.4142L5.70711 21.7071C5.31658 22.0976 4.68342 22.0976 4.29289 21.7071C3.90237 21.3166 3.90237 20.6834 4.29289 20.2929L15.2929 9.29289Z" fill="#7266BA"/>
<path fill-rule="evenodd" clip-rule="evenodd" d="M19 1C19.5523 1 20 1.44772 20 2V8C20 8.55228 19.5523 9 19 9C18.4477 9 18 8.55228 18 8V2C18 1.44772 18.4477 1 19 1Z" fill="#7266BA"/>
<path fill-rule="evenodd" clip-rule="evenodd" d="M15 5C15 4.44772 15.4477 4 16 4H22C22.5523 4 23 4.44772 23 5C23 5.55228 22.5523 6 22 6H16C15.4477 6 15 5.55228 15 5Z" fill="#7266BA"/>
</svg>
