<svg width="24" height="24" viewBox="0 0 24 24" fill="none" xmlns="http://www.w3.org/2000/svg">
<path d="M8.26205 17.9999H3.50005C2.57179 17.9999 1.68155 17.6311 1.02517 16.9748C0.368797 16.3184 4.79501e-05 15.4281 4.79501e-05 14.4999V9.23188C-0.00438347 7.85099 0.298393 6.48639 0.886445 5.23696C1.4745 3.98752 2.3331 2.88453 3.40005 2.00788C4.41156 1.16854 5.59938 0.568192 6.87507 0.251522C8.15075 -0.0651487 9.48144 -0.0899789 10.768 0.17888C12.544 0.536129 14.171 1.42047 15.4367 2.71649C16.7024 4.0125 17.5479 5.65998 17.863 7.44388C18.0969 8.70249 18.0484 9.99734 17.7208 11.2349C17.3933 12.4724 16.7949 13.6218 15.969 14.5999C15.0098 15.694 13.823 16.5652 12.4917 17.1525C11.1604 17.7398 9.71683 18.029 8.26205 17.9999ZM8.97905 2.99988C7.63522 2.99712 6.33311 3.46643 5.30005 4.32588C4.58118 4.92563 4.00265 5.6758 3.60525 6.52347C3.20785 7.37114 3.00126 8.29568 3.00005 9.23188V14.4999C3.00005 14.6325 3.05273 14.7597 3.14649 14.8534C3.24026 14.9472 3.36744 14.9999 3.50005 14.9999H8.26205C9.27974 15.0275 10.2912 14.8328 11.2259 14.4293C12.1606 14.0259 12.9961 13.4234 13.674 12.6639C14.2157 12.019 14.6073 11.2618 14.8205 10.4471C15.0337 9.63236 15.0633 8.78043 14.907 7.95288C14.6872 6.7706 14.1213 5.68021 13.281 4.81997C12.4407 3.95973 11.3639 3.36838 10.187 3.12088C9.78926 3.04142 9.38469 3.0009 8.97905 2.99988ZM20.979 9.78188C20.6633 9.52829 20.329 9.29865 19.979 9.09488C19.9751 10.229 19.7884 11.3552 19.426 12.4299C20.4279 13.4294 20.9938 14.7847 21 16.1999V20.4999C21 20.6325 20.9474 20.7597 20.8536 20.8534C20.7598 20.9472 20.6327 20.9999 20.5 20.9999H16.64C15.8533 21.0174 15.071 20.8788 14.3382 20.592C13.6054 20.3051 12.9368 19.8758 12.371 19.3289C11.3104 19.6815 10.2079 19.8929 9.09205 19.9579C9.30258 20.3171 9.54204 20.6586 9.80805 20.9789C10.6579 21.9499 11.7097 22.7234 12.8898 23.2453C14.07 23.7671 15.3499 24.0247 16.64 23.9999H20.5C21.4283 23.9999 22.3185 23.6311 22.9749 22.9748C23.6313 22.3184 24 21.4281 24 20.4999V16.1999C24.0045 14.9736 23.7361 13.7617 23.2143 12.652C22.6925 11.5423 21.9303 10.5626 20.983 9.78388L20.979 9.78188Z" fill="#7266ba"/>
</svg>
