<svg width="24" height="24" viewBox="0 0 24 24" fill="none" xmlns="http://www.w3.org/2000/svg">
<path d="M21.77 8.94826C21.6068 8.88992 21.4577 8.79797 21.3323 8.67835C21.2069 8.55874 21.108 8.41414 21.042 8.25389C20.976 8.09365 20.9444 7.92134 20.9492 7.74811C20.954 7.57488 20.9952 7.40459 21.07 7.24826C21.3569 6.64431 21.45 5.96635 21.3363 5.30742C21.2226 4.64849 20.9078 4.04089 20.435 3.56802C19.9623 3.09515 19.3548 2.78018 18.6959 2.66635C18.0369 2.55252 17.359 2.64541 16.755 2.93226C16.5986 3.00688 16.4283 3.04789 16.2551 3.05263C16.082 3.05737 15.9097 3.02574 15.7495 2.95977C15.5893 2.89381 15.4447 2.79498 15.3251 2.66966C15.2054 2.54435 15.1134 2.39534 15.055 2.23226C14.8301 1.60334 14.4164 1.05929 13.8704 0.674629C13.3244 0.289966 12.6728 0.0834961 12.005 0.0834961C11.3371 0.0834961 10.6855 0.289966 10.1395 0.674629C9.5935 1.05929 9.17976 1.60334 8.95495 2.23226C8.89661 2.39544 8.80466 2.54455 8.68505 2.66995C8.56544 2.79535 8.42083 2.89424 8.26059 2.96023C8.10034 3.02621 7.92803 3.05781 7.7548 3.053C7.58157 3.04818 7.41128 3.00704 7.25495 2.93226C6.65063 2.64313 5.97152 2.5485 5.31117 2.66141C4.65083 2.77432 4.04174 3.08921 3.56781 3.5627C3.09388 4.03619 2.77843 4.64499 2.66491 5.30523C2.55139 5.96547 2.64538 6.64466 2.93395 7.24926C3.0089 7.40556 3.05016 7.57587 3.05506 7.74915C3.05995 7.92242 3.02838 8.09479 2.96238 8.25508C2.89638 8.41537 2.79742 8.55999 2.67194 8.67958C2.54645 8.79917 2.39723 8.89105 2.23395 8.94926C1.60548 9.17452 1.06194 9.58843 0.677669 10.1344C0.293397 10.6803 0.0871582 11.3316 0.0871582 11.9993C0.0871582 12.6669 0.293397 13.3182 0.677669 13.8641C1.06194 14.4101 1.60548 14.824 2.23395 15.0493C2.39757 15.1071 2.54721 15.1987 2.67315 15.318C2.79909 15.4374 2.89853 15.582 2.96501 15.7423C3.03148 15.9026 3.06352 16.0751 3.05903 16.2485C3.05454 16.422 3.01363 16.5926 2.93895 16.7493C2.65179 17.3528 2.55845 18.0305 2.67173 18.6892C2.78502 19.3479 3.09938 19.9555 3.57168 20.4284C4.04398 20.9014 4.65107 21.2166 5.30964 21.3308C5.96821 21.445 6.64599 21.3526 7.24995 21.0663C7.40628 20.9915 7.57657 20.9503 7.7498 20.9455C7.92303 20.9407 8.09534 20.9723 8.25559 21.0383C8.41583 21.1043 8.56044 21.2032 8.68005 21.3286C8.79966 21.454 8.89161 21.6031 8.94995 21.7663C9.17476 22.3952 9.5885 22.9392 10.1345 23.3239C10.6805 23.7086 11.3321 23.915 12 23.915C12.6678 23.915 13.3194 23.7086 13.8654 23.3239C14.4114 22.9392 14.8251 22.3952 15.05 21.7663C15.1083 21.6031 15.2002 21.454 15.3199 21.3286C15.4395 21.2032 15.5841 21.1043 15.7443 21.0383C15.9046 20.9723 16.0769 20.9407 16.2501 20.9455C16.4233 20.9503 16.5936 20.9915 16.75 21.0663C17.3539 21.3533 18.0319 21.4463 18.6908 21.3326C19.3497 21.2189 19.9573 20.9041 20.4302 20.4314C20.9031 19.9586 21.218 19.3511 21.3319 18.6922C21.4457 18.0333 21.3528 17.3553 21.066 16.7513C20.9913 16.5949 20.9503 16.4246 20.9456 16.2515C20.9408 16.0783 20.9725 15.906 21.0384 15.7458C21.1044 15.5856 21.2032 15.441 21.3285 15.3214C21.4539 15.2018 21.6029 15.1097 21.766 15.0513C22.3949 14.8264 22.9389 14.4127 23.3236 13.8667C23.7082 13.3207 23.9147 12.6692 23.9147 12.0013C23.9147 11.3334 23.7082 10.6818 23.3236 10.1358C22.9389 9.58981 22.3949 9.17607 21.766 8.95126L21.77 8.94826Z" fill="#ff721f"/>
<g clip-path="url(#clip0_322_4184)">
<path d="M9.87459 16.3313C9.53396 16.3315 9.20728 16.1961 8.96662 15.955L6.22153 13.2109C5.92616 12.9155 5.92616 12.4365 6.22153 12.141C6.517 11.8457 6.99595 11.8457 7.29142 12.141L9.87459 14.7242L16.7086 7.89023C17.004 7.59486 17.483 7.59486 17.7785 7.89023C18.0738 8.1857 18.0738 8.66465 17.7785 8.96012L10.7826 15.955C10.5419 16.1961 10.2152 16.3315 9.87459 16.3313Z" fill="white"/>
</g>
<defs>
<clipPath id="clip0_322_4184">
<rect width="12" height="12" fill="white" transform="translate(6 6)"/>
</clipPath>
</defs>
</svg>
