<svg width="24" height="21" viewBox="0 0 24 21" fill="none" xmlns="http://www.w3.org/2000/svg">
<path fill-rule="evenodd" clip-rule="evenodd" d="M4.9507 1.481C5.72863 1.15798 6.56267 0.991699 7.405 0.991699C8.24733 0.991699 9.08138 1.15798 9.85931 1.481C10.6372 1.80402 11.3438 2.27743 11.9383 2.87408L11.9417 2.87742L12 2.93653L12.0583 2.87743L12.0617 2.87408C12.6563 2.27743 13.3628 1.80402 14.1407 1.481C14.9186 1.15798 15.7527 0.991699 16.595 0.991699C17.4373 0.991699 18.2714 1.15798 19.0493 1.481C19.827 1.80391 20.5333 2.2771 21.1277 2.87346C23.6727 5.41916 23.7293 9.62831 20.7136 12.7005L20.7071 12.7071L12.7071 20.7071C12.5196 20.8946 12.2652 21 12 21C11.7348 21 11.4804 20.8946 11.2929 20.7071L3.28634 12.7005C0.270638 9.62833 0.327258 5.41915 2.87229 2.87346C3.46674 2.2771 4.17303 1.80391 4.9507 1.481ZM7.405 2.9917C6.8259 2.9917 6.25249 3.10602 5.71767 3.32809C5.18284 3.55017 4.69711 3.87564 4.28833 4.28584L4.28711 4.28706C2.59349 5.98068 2.38976 8.92921 4.71052 11.2963L12 18.5857L19.2895 11.2963C21.6102 8.92922 21.4065 5.98068 19.7129 4.28706L19.7117 4.28584C19.3029 3.87564 18.8172 3.55017 18.2823 3.32809C17.7475 3.10602 17.1741 2.9917 16.595 2.9917C16.0159 2.9917 15.4425 3.10602 14.9077 3.32809C14.3735 3.54988 13.8884 3.87478 13.4799 4.28422C13.4794 4.28476 13.4789 4.2853 13.4783 4.28584L12.7117 5.06249C12.5238 5.25282 12.2675 5.35996 12 5.35996C11.7325 5.35996 11.4762 5.25282 11.2883 5.06249L10.5217 4.28584C10.5211 4.2853 10.5206 4.28476 10.5201 4.28422C10.1116 3.87478 9.62646 3.54988 9.09234 3.32809C8.55751 3.10602 7.9841 2.9917 7.405 2.9917Z" fill="#EA4C4C"/>
</svg>
