<svg width="16" height="16" viewBox="0 0 16 16" fill="none" xmlns="http://www.w3.org/2000/svg">
<g clip-path="url(#clip0_1213_21237)">
<path d="M11.6665 1.27783C10.9158 1.28951 10.1814 1.49907 9.53765 1.88535C8.89385 2.27162 8.36338 2.82094 7.99981 3.47783C7.63624 2.82094 7.10577 2.27162 6.46197 1.88535C5.81817 1.49907 5.08384 1.28951 4.33314 1.27783C3.13644 1.32983 2.00895 1.85333 1.197 2.73399C0.385049 3.61464 -0.0453576 4.78085 -0.000190567 5.97783C-0.000190567 9.00916 3.19048 12.3198 5.86648 14.5645C6.46395 15.0666 7.21938 15.3418 7.99981 15.3418C8.78024 15.3418 9.53566 15.0666 10.1331 14.5645C12.8091 12.3198 15.9998 9.00916 15.9998 5.97783C16.045 4.78085 15.6146 3.61464 14.8026 2.73399C13.9907 1.85333 12.8632 1.32983 11.6665 1.27783Z" fill="#7266BA"/>
</g>
<defs>
<clipPath id="clip0_1213_21237">
<rect width="16" height="16" fill="white"/>
</clipPath>
</defs>
</svg>
