<svg width="197" height="172" viewBox="0 0 197 172" fill="none" xmlns="http://www.w3.org/2000/svg">
<g clip-path="url(#clip0_460_2260)">
<path d="M163.793 82.5074C163.372 84.1605 160.613 86.2405 156.305 88.0876L156.986 78.1856L155.041 67.9956L140.698 49.2331L131.055 49.7151L123.865 54.0822V56.9516V56.971C124.19 57.825 140.568 93.807 140.568 94.124C140.245 94.5645 139.889 94.9798 139.502 95.3662C134.546 100.348 124.711 99.4099 122.028 99.0443C121.616 98.9893 121.428 98.627 121.266 98.2485C114.193 81.5434 111.976 49.1425 134.144 46.1663C158.137 42.9217 164.603 79.3145 163.793 82.5074Z" fill="#101012"/>
<path d="M170.743 95.6994C170.71 95.9064 170.675 96.1199 170.639 96.3464C170.616 96.4984 170.59 96.6699 170.564 96.8187C170.539 96.9675 170.5 97.2198 170.467 97.4301C170.435 97.6404 170.399 97.8571 170.363 98.0771C170.338 98.2421 170.312 98.4006 170.286 98.585C170.199 99.1327 170.108 99.7096 170.013 100.316C169.965 100.62 169.916 100.927 169.868 101.244C169.842 101.403 169.816 101.568 169.793 101.726C169.741 102.05 169.689 102.373 169.634 102.729C169.608 102.891 169.586 103.052 169.56 103.224C169.505 103.567 169.453 103.916 169.398 104.269C169.297 104.916 169.2 105.563 169.096 106.21C169.025 106.682 168.95 107.161 168.876 107.649C168.827 107.973 168.775 108.296 168.727 108.636C168.701 108.801 168.678 108.959 168.652 109.134C168.584 109.584 168.513 110.04 168.445 110.502C168.282 111.583 168.12 112.692 167.949 113.821C167.897 114.18 167.842 114.54 167.79 114.902C167.764 115.083 167.738 115.267 167.709 115.449C167.605 116.154 167.497 116.868 167.385 117.59C167.19 118.91 166.998 120.247 166.808 121.601C166.697 122.355 166.59 123.115 166.484 123.866C166.458 124.057 166.432 124.248 166.402 124.438C166.351 124.82 166.296 125.202 166.244 125.584C166.166 126.155 166.087 126.728 166.007 127.301C165.958 127.66 165.91 128.019 165.864 128.379C165.68 129.734 165.501 131.086 165.326 132.422C165.151 133.758 165.002 135.075 164.827 136.369C164.782 136.712 164.74 137.055 164.701 137.394C164.662 137.734 164.62 138.041 164.584 138.365C164.45 139.473 164.324 140.558 164.205 141.619C164.156 142.046 164.108 142.47 164.065 142.887C164.036 143.136 164.01 143.385 163.984 143.631C163.983 143.653 163.983 143.674 163.984 143.696C163.955 143.961 163.926 144.226 163.9 144.488C163.9 144.53 163.9 144.569 163.9 144.611L163.832 145.258C163.79 145.676 163.748 146.086 163.709 146.491C163.68 146.814 163.651 147.105 163.621 147.406C163.576 147.934 163.527 148.451 163.485 148.956C163.466 149.166 163.45 149.373 163.433 149.58C163.432 149.597 163.432 149.615 163.433 149.632C163.433 149.677 163.433 149.723 163.433 149.765C163.433 149.92 163.411 150.088 163.398 150.224C163.398 150.282 163.398 150.344 163.398 150.405C163.375 150.674 163.356 150.939 163.339 151.198C163.339 151.343 163.32 151.482 163.31 151.625C163.31 151.819 163.284 152.01 163.275 152.197C163.265 152.385 163.255 152.521 163.245 152.699L163.226 153.054C163.193 153.669 163.171 154.248 163.158 154.785C163.158 154.863 163.158 154.937 163.158 155.012C163.158 155.872 163.158 156.629 163.184 157.244C163.381 160.712 162.143 166.693 161.67 170.025C158.38 170.306 156.202 170.025 151.946 170.025L119.713 170.148L117.545 161.853L103.714 156.264C104.582 151.088 110.845 106.003 114.086 101.917C117.328 97.8312 130.747 93.8555 135.804 91.5264C140.5 89.3719 147.667 90.7144 152.581 91.232C157.942 91.7945 163.228 92.9278 168.347 94.6125C169.188 94.875 169.992 95.2401 170.743 95.6994Z" fill="#7FC128"/>
<path d="M125.655 54.2407C125.22 57.6956 119.386 61.9819 120.893 72.725C122.4 83.4682 127.113 93.752 143.502 84.5648C159.89 75.3777 144.721 59.5945 144.721 59.5945L139.265 51.8307L131.055 51.1287L125.655 54.2407Z" fill="#FCD4BE"/>
<path d="M123.489 71.4537C123.489 72.3239 124.005 73.0291 124.64 73.0291C125.275 73.0291 125.791 72.3239 125.791 71.4537C125.791 70.5835 125.275 69.8816 124.64 69.8816C124.005 69.8816 123.489 70.5868 123.489 71.4537Z" fill="#101012"/>
<path d="M131.988 70.6773C131.988 71.5475 132.507 72.2527 133.142 72.2527C133.778 72.2527 134.293 71.5475 134.293 70.6773C134.293 69.8072 133.778 69.1019 133.142 69.1019C132.507 69.1019 131.988 69.8072 131.988 70.6773Z" fill="#101012"/>
<path d="M128.53 72.3562C127.807 72.8997 127.596 73.9737 127.356 74.7921C127.136 75.5523 126.501 76.9013 127.412 77.4448C127.895 77.7751 128.463 77.9593 129.048 77.9753C129.8 77.93 129.875 77.2086 129.81 76.594L129.586 74.5107C129.525 73.9187 129.57 73.1585 129.314 72.6086C129.29 72.5371 129.25 72.4718 129.198 72.4173C129.146 72.3629 129.082 72.3206 129.012 72.2934C128.941 72.2662 128.865 72.2549 128.79 72.2601C128.715 72.2654 128.641 72.2872 128.575 72.3239C128.559 72.3328 128.544 72.3437 128.53 72.3562Z" fill="#FAC6A9"/>
<path d="M126.718 68.4743C126.364 68.3074 125.998 68.1689 125.622 68.0603C125.306 67.9629 124.98 67.9043 124.65 67.8856C124.342 67.8712 124.034 67.9196 123.745 68.0279C123.394 68.179 123.059 68.3666 122.747 68.5876C122.777 68.1274 122.985 67.6969 123.327 67.3874C123.702 67.0585 124.19 66.889 124.689 66.9151C125.158 66.9403 125.61 67.1047 125.985 67.3874C126.352 67.6501 126.612 68.036 126.718 68.4743Z" fill="#231F20"/>
<path d="M135.635 68.1476C135.245 67.927 134.825 67.7666 134.387 67.6721C133.995 67.5798 133.593 67.5374 133.191 67.5459C132.803 67.5545 132.419 67.6289 132.056 67.7659C131.646 67.9335 131.265 68.1638 130.925 68.4485C130.951 68.1888 131.029 67.9369 131.154 67.7079C131.279 67.4789 131.449 67.2775 131.654 67.1157C132.085 66.7744 132.616 66.5844 133.165 66.5754C133.7 66.5648 134.227 66.705 134.685 66.9798C135.144 67.2281 135.486 67.6481 135.635 68.1476Z" fill="#231F20"/>
<path d="M129.489 80.9191C130 80.9157 130.508 80.8571 131.006 80.7444C131.47 80.6325 131.91 80.4362 132.303 80.1654C132.69 79.8961 133.014 79.5476 133.256 79.1431C133.506 78.7025 133.693 78.2288 133.81 77.7359C133.942 78.2722 133.91 78.836 133.716 79.3534C133.514 79.8959 133.151 80.3641 132.675 80.6959C132.212 81.0128 131.673 81.2006 131.113 81.2398C130.553 81.2791 129.992 81.1684 129.489 80.9191Z" fill="#101012"/>
<path d="M148.234 96.217C146.805 102.57 134.815 106.666 133.56 98.0997C133.291 96.2655 133.7 94.4475 133.849 92.6327C133.907 91.9016 133.949 91.1705 133.969 90.4362C133.991 89.6016 133.969 88.7637 133.94 87.9291C133.94 87.6639 133.907 87.3986 133.884 87.1333C133.849 86.7354 133.197 82.3974 133.466 82.281L148.234 78.3667C148.234 78.3667 149.531 90.4006 148.234 96.217Z" fill="#FCD4BE"/>
<path d="M171.945 166.318C171.008 161.666 169.657 154.911 168.324 148.095C167.242 142.548 166.172 136.961 165.342 132.442C165.517 131.106 165.696 129.753 165.88 128.398C165.926 128.039 165.974 127.68 166.023 127.321C166.105 126.749 166.184 126.177 166.26 125.603C166.315 125.221 166.367 124.84 166.419 124.458C166.448 124.267 166.474 124.076 166.5 123.885C166.605 123.124 166.714 122.369 166.824 121.621C167.014 120.269 167.206 118.932 167.401 117.61C167.504 116.888 167.608 116.176 167.725 115.468C167.754 115.287 167.78 115.102 167.806 114.921C167.861 114.559 167.913 114.197 167.965 113.841C168.133 112.712 168.289 111.602 168.461 110.522C168.532 110.059 168.6 109.603 168.668 109.153C168.694 108.985 168.717 108.83 168.743 108.655C168.795 108.332 168.843 107.992 168.892 107.669C168.966 107.18 169.041 106.698 169.112 106.229C169.216 105.561 169.316 104.914 169.414 104.288C169.469 103.936 169.521 103.586 169.576 103.243C169.602 103.078 169.628 102.92 169.65 102.748C169.705 102.405 169.757 102.072 169.809 101.745C169.835 101.584 169.858 101.422 169.884 101.263C169.932 100.94 169.981 100.639 170.029 100.335C170.123 99.7301 170.214 99.1511 170.302 98.6044C170.328 98.4329 170.354 98.2615 170.38 98.0965C170.415 97.8733 170.451 97.6566 170.483 97.4495C170.516 97.2425 170.548 97.0355 170.581 96.8381C170.613 96.6408 170.632 96.5146 170.655 96.3658C170.691 96.1426 170.726 95.9291 170.759 95.7188C173.251 97.2975 174.542 99.7787 175.478 102.988C177.838 111.043 184.664 142.282 186.207 151.437C186.36 152.349 186.46 153.055 186.499 153.469C186.807 156.94 185.909 163.235 171.945 166.318Z" fill="#7FC128"/>
<path d="M118.575 106.035L118.517 106.753C118.501 106.992 118.517 107.235 118.517 107.474C118.517 107.956 118.517 108.445 118.54 108.917C118.562 109.39 118.575 109.888 118.601 110.36C118.627 110.832 118.65 111.331 118.686 111.803C118.793 113.724 118.951 115.643 119.097 117.561C119.421 121.401 119.746 125.237 120.138 129.064C120.332 130.976 120.53 132.898 120.818 134.784C120.959 135.748 121.025 136.721 121.016 137.695C121.016 138.666 120.977 139.636 120.919 140.607C120.647 144.457 120.171 148.29 119.493 152.09C119.69 150.172 119.895 148.257 120.04 146.336C120.186 144.414 120.339 142.499 120.413 140.581C120.488 138.662 120.523 136.731 120.216 134.877C119.891 132.956 119.7 131.041 119.493 129.123C119.113 125.283 118.806 121.436 118.592 117.587C118.491 115.646 118.404 113.734 118.368 111.803C118.368 111.321 118.368 110.832 118.368 110.357C118.368 109.881 118.368 109.386 118.368 108.911C118.368 108.435 118.368 107.94 118.42 107.462C118.439 107.222 118.446 106.98 118.478 106.74L118.575 106.035Z" fill="#6AA121"/>
<path d="M170.743 95.6994C170.343 97.0099 170.027 98.3443 169.796 99.6945C169.547 101.04 169.336 102.392 169.148 103.748C168.756 106.459 168.386 109.173 168.056 111.893C167.407 117.33 166.786 122.775 166.192 128.227C165.89 130.95 165.618 133.677 165.3 136.398L164.824 140.487L164.565 142.528C164.477 143.207 164.357 143.906 164.24 144.563C164.046 145.905 163.949 147.27 163.832 148.632C163.715 149.994 163.644 151.363 163.569 152.731L163.369 156.833L163.19 160.941C163.148 159.573 163.138 158.201 163.135 156.83C163.132 155.458 163.135 154.086 163.171 152.715C163.195 149.964 163.359 147.216 163.663 144.482C163.764 143.786 163.874 143.133 163.958 142.45L164.202 140.416L164.652 136.33C164.937 133.603 165.258 130.882 165.566 128.159C166.195 122.711 166.821 117.263 167.602 111.835C167.991 109.121 168.38 106.404 168.863 103.703C169.106 102.354 169.359 101.005 169.65 99.6654C169.92 98.3192 170.285 96.9938 170.743 95.6994Z" fill="#6AA121"/>
<path d="M116.313 162.371C115.371 162.372 114.451 162.094 113.668 161.572C112.885 161.051 112.275 160.309 111.914 159.441C111.553 158.573 111.459 157.618 111.642 156.697C111.826 155.775 112.279 154.929 112.945 154.264C113.611 153.6 114.459 153.148 115.382 152.964C116.305 152.781 117.262 152.876 118.132 153.235C119.002 153.595 119.745 154.204 120.267 154.986C120.79 155.767 121.069 156.686 121.068 157.625C121.066 158.884 120.565 160.09 119.673 160.979C118.782 161.869 117.573 162.369 116.313 162.371ZM116.313 154.546C115.702 154.546 115.106 154.726 114.598 155.065C114.091 155.403 113.695 155.884 113.462 156.447C113.228 157.01 113.167 157.629 113.286 158.226C113.405 158.824 113.699 159.372 114.131 159.803C114.562 160.234 115.112 160.527 115.711 160.646C116.309 160.765 116.93 160.704 117.494 160.471C118.058 160.238 118.539 159.843 118.879 159.336C119.218 158.83 119.399 158.235 119.399 157.625C119.398 156.809 119.072 156.026 118.494 155.449C117.915 154.871 117.131 154.547 116.313 154.546Z" fill="#CAC4E5"/>
<path d="M118.404 149.163H133.223C133.778 149.163 134.31 149.383 134.702 149.774C135.094 150.165 135.314 150.696 135.314 151.249V160.767C135.314 162.629 134.573 164.416 133.253 165.733C131.933 167.05 130.143 167.79 128.277 167.79H123.35C122.425 167.79 121.51 167.609 120.655 167.257C119.8 166.904 119.024 166.387 118.37 165.735C117.716 165.083 117.197 164.308 116.843 163.456C116.489 162.603 116.306 161.689 116.306 160.767V151.249C116.306 150.975 116.361 150.703 116.466 150.449C116.572 150.196 116.726 149.966 116.921 149.772C117.116 149.578 117.347 149.424 117.602 149.32C117.856 149.215 118.128 149.162 118.404 149.163Z" fill="white" stroke="#CAC4E5" stroke-width="1.11157" stroke-miterlimit="10"/>
<path d="M125.813 164.529H113.908C113.705 164.517 113.504 164.559 113.323 164.65C113.142 164.741 112.989 164.879 112.879 165.048C112.768 165.218 112.705 165.414 112.695 165.616C112.685 165.817 112.729 166.018 112.822 166.198L113.898 168.113H137.726L138.802 166.198C138.895 166.018 138.939 165.817 138.929 165.616C138.919 165.414 138.855 165.218 138.745 165.048C138.635 164.879 138.481 164.741 138.301 164.65C138.12 164.559 137.918 164.517 137.716 164.529H125.813Z" fill="#CAC4E5"/>
<path d="M152.934 164.312C152.773 164.259 152.609 164.219 152.442 164.192C151.646 164.064 150.839 164.008 150.033 164.024C149.502 164.024 148.879 164.047 148.163 164.092C145.028 164.344 141.916 164.823 138.85 165.525C135.285 166.298 133.243 166.981 133.162 165.768C133.081 164.555 139.482 162.128 139.401 160.996C139.324 159.922 131.071 161.032 128.844 159.974C128.793 159.95 128.75 159.914 128.717 159.868C128.685 159.822 128.665 159.769 128.659 159.713C128.654 159.657 128.663 159.601 128.685 159.55C128.708 159.499 128.744 159.454 128.789 159.421C130.257 158.337 137.82 158.001 140.209 157.923C137.862 156.467 124.893 158.062 127.891 155.927C129.512 154.772 140.092 154.769 140.209 154.769C140.209 154.769 138.996 153.854 135.593 153.126C128.705 153.773 127.894 152.1 127.894 152.1C127.894 152.1 127.57 151.696 132.676 150.402C136.455 149.431 144.186 152.165 148.931 154.038L149.22 154.151C150.244 154.555 151.116 154.918 151.758 155.183L152.529 155.507L152.707 159.363L152.925 164.102L152.934 164.312Z" fill="#FCD4BE"/>
<path d="M101.652 162.203C100.657 159.592 101.652 155.733 102.605 153.498C103.237 152.003 104.346 150.221 106.171 150.205C110.465 150.159 119.703 155.012 120.352 156.629C121 158.247 115.597 156.752 113.976 156.574C114.867 158.098 114.355 163.584 112.41 164.716C109.548 166.382 104.53 166.094 102.336 163.422C102.043 163.056 101.812 162.644 101.652 162.203Z" fill="#FCD4BE"/>
<path d="M156.986 78.1823L156.306 88.0844C153.178 89.4269 147.291 90.8664 142.831 91.714C142.765 91.7333 142.695 91.7371 142.626 91.7253C142.558 91.7134 142.494 91.6861 142.438 91.6455C142.382 91.605 142.336 91.5521 142.303 91.4911C142.271 91.4301 142.253 91.3625 142.251 91.2935C142.27 88.6052 141.103 79.4925 138.51 69.8912C135.7 59.491 128.381 66.9992 122.741 60.3482L123.865 54.0919L131.055 49.7151L140.698 49.2298L155.041 67.9923L156.986 78.1823Z" fill="#101012"/>
<path d="M171.945 166.318C169.316 166.9 165.566 167.802 161.936 168.113C158.646 168.394 155.57 168.113 151.33 168.113V154.42C152.691 154.42 157.907 151.906 163.414 149.797C165.054 149.15 166.723 148.574 168.321 148.095C171.297 147.199 174.036 146.698 175.932 147.086C178.849 147.681 182.791 149.564 186.188 151.418C186.34 152.33 186.441 153.035 186.48 153.449C186.807 156.94 185.909 163.235 171.945 166.318Z" fill="#7FC128"/>
<g opacity="0.3">
<path opacity="0.3" d="M131.703 103.9C131.92 104.259 132.177 104.593 132.468 104.896C132.753 105.192 133.07 105.455 133.414 105.679C134.094 106.129 134.84 106.47 135.625 106.688C136.408 106.913 137.214 107.047 138.027 107.09C138.842 107.142 139.66 107.121 140.471 107.025C141.289 106.942 142.098 106.794 142.892 106.582C143.694 106.374 144.483 106.122 145.255 105.825C146.03 105.524 146.789 105.178 147.541 104.802C148.293 104.427 149.019 104 149.761 103.576C148.521 104.773 147.098 105.767 145.547 106.52C143.982 107.289 142.297 107.785 140.565 107.989C138.814 108.2 137.038 108 135.379 107.403C134.546 107.096 133.777 106.639 133.11 106.054C132.784 105.76 132.495 105.427 132.248 105.064C132.013 104.703 131.829 104.311 131.703 103.9Z" fill="#3B3A40"/>
</g>
<path opacity="0.3" d="M149.207 115.222C149.207 115.222 157.722 114.09 159.099 113.847C160.247 114.307 159.725 117.567 159.482 117.729C159.239 117.891 149.463 118.457 149.207 118.457C148.951 118.457 148.484 116.435 149.207 115.222Z" fill="#3B3A40"/>
<path d="M148.818 114.656C148.818 114.656 157.715 114.09 159.093 113.847C159.66 115.141 159.336 117.001 159.093 117.163C158.85 117.325 149.074 117.891 148.818 117.891C148.562 117.891 148.101 115.869 148.818 114.656Z" fill="#B3E177"/>
<path d="M138.996 85.5677C138.141 87.79 135.693 89.2749 133.969 90.4362C133.992 89.6016 133.969 88.877 133.94 88.0424C134.379 87.9146 134.812 87.7645 135.236 87.5927C136.56 87.0567 137.821 86.3777 138.996 85.5677Z" fill="#FAC6A9"/>
<path d="M14.3641 110.693C12.241 110.027 10.2378 109.399 9.17787 107.268C7.33351 103.502 7.37241 98.0771 8.34807 94.0981C9.17139 90.7338 12.1049 88.4468 13.6283 85.435C15.2328 82.2648 13.4436 78.7032 14.4743 75.3809C15.1949 73.1575 16.5779 71.2063 18.4386 69.7877C20.4288 68.2447 22.3283 67.3195 23.4141 64.9354C24.607 62.3312 24.9246 59.436 26.1045 56.8189C32.0395 43.6819 50.6776 43.9957 57.4943 56.172C59.6336 59.9924 60.5898 66.087 57.6855 69.778C55.7666 72.2172 55.2739 70.8714 55.8477 73.9446C56.5154 77.5192 62.2624 80.0424 63.6271 83.3259C64.5341 85.5085 64.6488 87.9388 63.9512 90.1968C63.1246 93.0112 60.8621 95.0169 63.157 97.8215C64.1457 99.0282 65.5622 100.144 65.7307 101.8C66.5184 109.6 60.1425 110.726 53.9579 111.948C47.3649 113.242 40.7103 114.258 34.0589 115.206C32.8401 115.377 31.6214 115.552 30.3994 115.714L14.3641 110.693Z" fill="#3B3A40"/>
<path d="M58.8363 101.228C65.3191 105.456 68.7258 116.516 70.6707 122.501C71.6431 125.574 65.2867 132.367 65.2867 132.367L58.8363 101.228Z" fill="#7161BA"/>
<path d="M86.8323 111.043C86.8323 111.043 80.8714 129.09 69.5718 143.502C68.9657 144.275 68.3401 145.042 67.6983 145.792C67.5394 145.983 67.3741 146.171 67.2153 146.355C65.6671 148.152 64.0109 149.853 62.2559 151.45L62.0906 151.602C61.6985 151.625 61.3051 151.619 60.914 151.583L60.6352 151.55C56.564 150.968 55.3647 146.698 56.013 142.337C56.1623 141.265 56.5488 140.24 57.1442 139.335C57.5462 138.688 58.0226 138.077 58.5283 137.304C59.5007 135.819 61.3808 133.389 63.5655 130.585C63.8442 130.229 64.1197 129.87 64.3985 129.504C71.1536 120.738 78.4273 110.169 78.4273 110.169L86.8323 111.043Z" fill="#FCD4BE"/>
<path d="M79.5165 108.044C79.9703 106.598 80.0448 106.391 79.5911 105.061C79.1373 103.732 76.4145 93.2668 75.0239 92.2931C75.0184 92.2904 75.0138 92.2863 75.0106 92.2811C75.0073 92.276 75.0056 92.27 75.0056 92.264C75.0056 92.2579 75.0073 92.2519 75.0106 92.2468C75.0138 92.2416 75.0184 92.2375 75.0239 92.2348C76.1876 91.7852 78.9914 93.325 80.3333 97.1066C81.1404 98.1677 82.4727 97.7827 83.4807 96.2817C84.4888 94.7807 90.1937 85.972 90.9068 85.283C91.149 85.0426 91.4572 84.8793 91.7924 84.8136C92.1276 84.748 92.4748 84.783 92.7901 84.9142C93.205 85.063 88.479 93.5482 88.4693 93.972C88.4595 94.3958 89.0819 94.5413 89.7982 93.6485C90.7707 92.4548 91.5745 91.122 92.4757 89.8831C93.0786 89.0517 93.6912 88.2235 94.3492 87.4342C94.8289 86.8552 95.26 86.0917 96.0185 85.8426C96.3167 85.7456 98.0833 85.7003 97.6878 86.3505C97.3994 86.8293 91.5518 95.7706 91.2731 95.9032C92.0413 95.7124 97.1368 89.042 98.5241 89.0743C99.9114 89.1067 99.6878 89.8669 99.6878 89.8669L96.696 93.5676L94.4562 96.3238C94.2163 96.6214 92.9521 97.8054 93.0105 98.1936C93.1563 99.0476 94.4043 98.7241 94.8322 98.4976C95.9569 97.9024 99.0687 95.7577 100.245 95.9259C101.422 96.0941 101.334 96.7961 101.334 96.7961C101.334 96.7961 94.4853 101.131 94.2779 101.325C93.0656 102.473 90.0414 106.908 87.7951 109.212C86.3818 111.673 86.2197 112.57 86.2197 112.57L77.0563 112.793L79.5165 108.044Z" fill="#FCD4BE"/>
<path d="M82.9166 98.682C83.4153 98.7445 83.8902 98.9314 84.2975 99.2255C84.711 99.535 85.0445 99.9387 85.2699 100.403C85.5007 100.868 85.6121 101.382 85.594 101.901C85.586 102.158 85.5367 102.413 85.4482 102.654C85.3643 102.898 85.2083 103.11 85.0008 103.263C85.1516 102.832 85.1819 102.369 85.0884 101.923C85.019 101.494 84.888 101.077 84.6994 100.684C84.5082 100.292 84.2639 99.9271 83.9733 99.6007C83.6441 99.2691 83.2909 98.962 82.9166 98.682Z" fill="#FAC6A9"/>
<path d="M69.7921 171.746C69.468 172.069 27.884 171.746 27.884 171.746L22.1434 91.122L37.7832 86.0658L37.861 86.0399L38.3537 85.8814L39.3845 85.5579C45.7182 83.507 51.4231 81.6599 51.6338 81.5952C51.0989 81.7925 50.1849 85.2474 49.9904 85.7747C49.7959 86.302 49.5982 86.8454 49.4102 87.3921C49.4102 87.3921 49.4102 87.4083 49.4102 87.4148C49.4088 87.4212 49.4088 87.4278 49.4102 87.4342C49.2513 87.8935 49.086 88.3561 48.9596 88.822C48.8883 89.0613 48.8202 89.304 48.7554 89.5466C48.6193 90.0512 48.5026 90.5591 48.4086 91.067C48.347 91.4099 48.2919 91.7528 48.253 92.0957L48.2335 92.2769C47.9677 94.881 49.2708 95.4471 51.3226 96.5955C52.0681 97.0128 52.8525 97.4495 53.6532 97.9088C57.0664 99.8724 60.7843 102.257 62.9982 105.21C64.6059 107.355 69.468 139.397 69.7921 171.746Z" fill="#7161BA"/>
<path d="M57.9609 71.2273C57.9342 73.449 57.6624 75.6609 57.1506 77.8233C56.0809 82.5042 53.8314 86.3182 49.342 87.3922L49.2124 87.4245C47.6307 87.7558 46.0017 87.7963 44.4054 87.5442C42.4065 87.2388 40.449 86.707 38.5708 85.9591C37.9226 85.7132 37.2743 85.4415 36.5806 85.1374L36.545 85.1212C19.4206 77.5127 33.0151 60.3903 33.0151 60.3903L37.7151 52.1413L45.8186 50.6856L51.4911 53.2735C54.1264 58.1809 57.9998 61.9528 57.9609 71.2273Z" fill="#FCD4BE"/>
<path d="M53.6403 97.8927C53.6403 108.293 51.7927 117.089 49.4751 120.56C29.8646 103.738 34.9471 99.6945 37.5403 95.4891C39.1934 92.8106 39.067 89.6469 37.9811 86.5899C37.9206 86.4152 37.8558 86.2405 37.7866 86.0658L37.8644 86.0399L38.3571 85.8814L39.3879 85.5579C45.7216 83.507 51.4264 81.6599 51.6371 81.5952C51.1023 81.7925 50.1882 85.2474 49.9938 85.7747C49.7993 86.302 49.6015 86.8454 49.4135 87.3921C49.4135 87.3921 49.4135 87.4083 49.4135 87.4148C49.4121 87.4212 49.4121 87.4278 49.4135 87.4342C49.2547 87.8935 49.0894 88.3561 48.963 88.822C48.8917 89.0613 48.8236 89.304 48.7588 89.5466C48.6226 90.0512 48.5059 90.5591 48.4119 91.067C48.3504 91.4099 48.2952 91.7528 48.2564 92.0957L48.2369 92.2769C47.9711 94.881 49.2742 95.4471 51.326 96.5955C52.0553 96.9966 52.8397 97.4333 53.6403 97.8927Z" fill="#FCD4BE"/>
<path d="M33.5337 169.718L23.7641 170.847C23.1956 170.856 22.6417 170.667 22.1975 170.313C21.7533 169.958 21.4465 169.461 21.3298 168.906L16.1436 141.661L16.1047 141.464L15.5212 138.404L14.7141 134.266L15.2036 134.095L27.5825 129.766L28.1044 133.296L28.3928 135.22L28.4091 135.324L28.7332 137.423L33.5337 169.718Z" fill="#FCD4BE"/>
<path d="M32.516 134.166C31.9261 134.349 31.3308 134.525 30.73 134.693C29.8224 134.949 28.9051 135.188 27.9846 135.421C26.4222 135.809 24.8533 136.171 23.2975 136.543L15.5181 138.397H15.463C13.6381 138.834 11.7645 139.93 11.1033 138.106C11.029 137.896 10.9737 137.679 10.938 137.459C10.6657 135.774 10.442 134.078 10.2022 132.387C9.72245 129.003 9.26865 125.615 8.84079 122.222C8.41292 118.803 7.58312 115.035 7.7225 111.58C8.04664 103.673 17.6056 98.4556 23.8258 95.363C24.2278 95.1657 27.0672 94.2049 27.1159 93.8911C27.1159 93.8911 26.6005 96.3464 26.7301 96.9805C27.6723 101.581 28.6145 106.182 29.5566 110.784C30.8532 117.092 32.1498 123.398 33.4463 129.702C33.6214 130.559 34.0006 131.575 34.0071 132.451C33.9909 133.803 33.9261 133.719 32.516 134.166Z" fill="#7161BA"/>
<path d="M54.5771 69.5257C54.5771 70.3959 54.0617 71.1011 53.4232 71.1011C52.7846 71.1011 52.2725 70.3959 52.2725 69.5257C52.2725 68.6555 52.7878 67.9503 53.4232 67.9503C54.0585 67.9503 54.5771 68.6555 54.5771 69.5257Z" fill="#101012"/>
<path d="M46.4021 70.0951C46.4021 70.9653 45.8867 71.6705 45.2514 71.6705C44.6161 71.6705 44.1007 70.9653 44.1007 70.0951C44.1007 69.2249 44.6161 68.5197 45.2514 68.5197C45.8867 68.5197 46.4021 69.2249 46.4021 70.0951Z" fill="#101012"/>
<path d="M49.4588 70.4638C50.3016 70.7614 51.3324 73.1003 51.7019 73.8217C52.0487 74.4913 52.509 75.7626 51.757 76.4096C51.366 76.8044 50.87 77.0794 50.3275 77.2022C49.6144 77.296 49.4167 76.6328 49.3551 76.0505C49.3 75.3874 49.2417 74.7274 49.1866 74.0643C49.1379 73.5014 48.6323 71.3567 48.7717 70.8003C48.7817 70.7254 48.8101 70.6541 48.8543 70.5928C48.8985 70.5315 48.9572 70.482 49.0252 70.4488C49.0931 70.4155 49.1682 70.3995 49.2439 70.4021C49.3195 70.4047 49.3934 70.4259 49.4588 70.4638Z" fill="#FAC6A9"/>
<path d="M51.1542 66.996C51.1627 66.5447 51.3342 66.1116 51.6371 65.7765C51.9415 65.416 52.3485 65.1565 52.8041 65.0324C53.284 64.9006 53.7964 64.9598 54.2335 65.1974C54.6354 65.4252 54.9329 65.7998 55.0633 66.2423C54.709 66.0975 54.3408 65.9891 53.9645 65.9188C53.659 65.876 53.348 65.8958 53.0504 65.977C52.7305 66.0687 52.4225 66.1979 52.1331 66.362C51.791 66.548 51.4637 66.7599 51.1542 66.996Z" fill="#231F20"/>
<path d="M42.0718 67.6689C42.092 67.1459 42.318 66.6519 42.7006 66.294C43.0792 65.9189 43.5552 65.6568 44.075 65.537C44.6096 65.4107 45.171 65.463 45.673 65.6859C45.9123 65.7914 46.1278 65.9441 46.3065 66.1348C46.4853 66.3254 46.6237 66.5501 46.7135 66.7954C46.3124 66.6058 45.8852 66.4772 45.4461 66.4137C45.0602 66.3707 44.6698 66.3948 44.2921 66.4849C43.4607 66.6782 42.6949 67.0865 42.0718 67.6689Z" fill="#231F20"/>
<path d="M48.9662 79.7189C48.198 79.7189 45.5854 79.9616 44.1041 78.3441C44.6325 80.932 45.8448 82.3878 48.9662 79.7189Z" fill="white"/>
<path d="M56.1588 61.5775C56.1394 61.5063 54.4052 61.3608 54.214 61.3219C53.695 61.2269 53.1845 61.0905 52.6873 60.9143C51.9831 60.6721 51.3302 60.3013 50.7619 59.8209C49.9483 59.119 49.3908 58.1323 48.3956 57.6471C46.7198 56.8286 44.1624 56.7251 42.3893 57.233C41.1773 57.5377 40.1271 58.292 39.4526 59.3422C37.7509 62.0595 38.7654 66.4363 39.8221 69.1957C41.2808 73.0065 41.0506 76.2414 38.0037 79.1528C35.7347 81.3331 36.1528 83.5135 38.4121 85.8976C39.299 86.7993 40.2584 87.627 41.2808 88.3723C41.6315 88.756 41.9391 89.1769 42.1981 89.6275C43.647 92.1701 42.3569 94.4378 39.9842 96.9449C37.229 99.8563 34.9438 99.5328 36.4932 102.282C37.336 103.777 38.9243 106.106 38.1139 107.898C36.665 111.133 30.3021 110.26 27.8905 109.344C24.527 108.064 21.5195 105.998 19.1192 103.321C16.6234 100.513 16.9605 97.0354 17.2263 93.4997C17.3968 91.184 17.6879 88.8787 18.0982 86.5931L26.2017 59.905L36.5742 49.715L46.6226 48.5828L53.5916 52.6265C53.5916 52.6265 56.1588 61.5678 56.1588 61.5775Z" fill="#3B3A40"/>
<path d="M63.0144 105.184C63.076 105.391 63.1409 105.598 63.196 105.809L63.3483 106.436C63.4553 106.857 63.5363 107.277 63.6335 107.701C63.8183 108.542 63.9869 109.39 64.1587 110.234C64.4914 111.927 64.8156 113.622 65.1311 115.319C65.734 118.716 66.2915 122.12 66.8036 125.532C67.3125 128.945 67.8279 132.361 68.1488 135.799C68.4697 139.238 68.7161 142.683 68.729 146.151H68.6642C68.2817 142.722 67.9284 139.296 67.507 135.877C67.0856 132.458 66.7291 129.032 66.2883 125.616C65.8474 122.2 65.3483 118.787 64.8102 115.381C64.5465 113.679 64.2689 111.979 63.9771 110.279C63.8248 109.432 63.6789 108.581 63.5169 107.737C63.4326 107.313 63.358 106.889 63.264 106.468L63.1279 105.821C63.0793 105.611 63.0177 105.407 62.9658 105.197L63.0144 105.184Z" fill="#413A7B"/>
<path d="M28.4091 135.308C29.4658 134.933 30.5581 134.661 31.6245 134.318C32.1531 134.178 32.6658 133.984 33.1545 133.739C33.3688 133.634 33.5479 133.468 33.6699 133.263C33.7703 133.055 33.7954 132.818 33.7412 132.594L33.0281 129.326L32.3376 126.043C31.8936 123.85 31.4592 121.653 31.0605 119.45C30.6618 117.247 30.2858 115.041 29.9584 112.822C30.5311 114.989 31.0638 117.166 31.5565 119.353C32.0556 121.537 32.5289 123.73 32.973 125.923C33.417 128.117 33.8611 130.3 34.2436 132.532C34.2992 132.865 34.2397 133.208 34.075 133.503C33.9048 133.78 33.6521 133.997 33.3522 134.124C32.8242 134.355 32.2718 134.526 31.7056 134.635L28.4091 135.308Z" fill="#413A7B"/>
<path d="M28.7204 137.407C24.6463 139.167 20.4332 140.588 16.1243 141.655L16.0854 141.457L15.502 138.397L23.2813 136.543C24.8372 136.171 26.406 135.809 27.9684 135.421L28.4092 135.308L28.7204 137.407Z" fill="#4E4693"/>
<path d="M49.3972 87.418C49.2384 87.8774 49.0731 88.34 48.9467 88.8058C48.8754 89.0452 48.8073 89.2878 48.7425 89.5304C48.7165 89.6242 48.6906 89.7213 48.6679 89.8151C46.8495 89.3493 44.2823 88.4208 42.6875 86.6675H42.7069C44.8832 87.2693 47.1414 87.5226 49.3972 87.418Z" fill="#FAC6A9"/>
<path opacity="0.5" d="M51.018 127.751C52.119 127.751 53.0115 126.86 53.0115 125.761C53.0115 124.663 52.119 123.772 51.018 123.772C49.917 123.772 49.0245 124.663 49.0245 125.761C49.0245 126.86 49.917 127.751 51.018 127.751Z" fill="#B25900"/>
<path d="M50.3892 127.227C51.4902 127.227 52.3827 126.336 52.3827 125.237C52.3827 124.139 51.4902 123.248 50.3892 123.248C49.2883 123.248 48.3958 124.139 48.3958 125.237C48.3958 126.336 49.2883 127.227 50.3892 127.227Z" fill="#FFE6CC"/>
<path d="M55.2479 162.048C54.3066 162.048 53.3865 161.769 52.6039 161.247C51.8214 160.725 51.2115 159.983 50.8514 159.115C50.4913 158.247 50.3973 157.292 50.5812 156.371C50.765 155.45 51.2185 154.604 51.8843 153.94C52.5501 153.276 53.3983 152.824 54.3216 152.641C55.2448 152.458 56.2017 152.552 57.0711 152.912C57.9405 153.272 58.6835 153.881 59.2059 154.663C59.7284 155.444 60.0069 156.363 60.0063 157.302C60.0046 158.561 59.5026 159.767 58.6105 160.657C57.7184 161.547 56.5091 162.047 55.2479 162.048ZM55.2479 154.222C54.6376 154.222 54.041 154.403 53.5335 154.741C53.026 155.08 52.6305 155.561 52.397 156.123C52.1634 156.686 52.1023 157.305 52.2214 157.903C52.3404 158.5 52.6343 159.049 53.0659 159.48C53.4974 159.91 54.0473 160.204 54.6459 160.322C55.2445 160.441 55.8649 160.38 56.4288 160.147C56.9926 159.914 57.4746 159.519 57.8137 159.013C58.1527 158.506 58.3337 157.911 58.3337 157.302C58.3329 156.485 58.0075 155.703 57.4289 155.125C56.8504 154.548 56.066 154.223 55.2479 154.222Z" fill="#CAC4E5"/>
<path d="M57.3388 149.163H72.1585C72.713 149.163 73.2448 149.383 73.6369 149.774C74.029 150.165 74.2492 150.696 74.2492 151.249V160.767C74.2492 162.629 73.5078 164.415 72.1881 165.733C70.8684 167.05 69.0785 167.79 67.2121 167.79H62.2884C60.4221 167.79 58.6322 167.05 57.3125 165.733C55.9927 164.415 55.2513 162.629 55.2513 160.767V151.249C55.2513 150.697 55.4712 150.166 55.8625 149.775C56.2539 149.384 56.7849 149.164 57.3388 149.163Z" fill="white" stroke="#CAC4E5" stroke-width="1.11157" stroke-miterlimit="10"/>
<path d="M64.7486 164.529H52.8429C52.641 164.518 52.4397 164.56 52.2594 164.651C52.0791 164.743 51.9263 164.88 51.8164 165.05C51.7065 165.219 51.6434 165.415 51.6336 165.616C51.6237 165.818 51.6674 166.019 51.7603 166.198L52.8332 168.113H76.664L77.7369 166.198C77.8309 166.019 77.8754 165.818 77.8661 165.616C77.8567 165.414 77.7938 165.218 77.6836 165.048C77.5735 164.878 77.4202 164.741 77.2393 164.649C77.0585 164.558 76.8566 164.517 76.6543 164.529H64.7486Z" fill="#CAC4E5"/>
<path d="M194.488 167.977H2.5117C1.40067 167.977 0.5 168.877 0.5 169.988C0.5 171.099 1.40066 172 2.51169 172H194.488C195.599 172 196.5 171.099 196.5 169.988C196.5 168.877 195.599 167.977 194.488 167.977Z" fill="#EEEDF2"/>
<path d="M64.8037 2.74731C59.8892 2.74738 55.1385 4.5109 51.4186 7.71609C47.6987 10.9213 45.2576 15.3544 44.5406 20.2066C43.8236 25.0588 44.8787 30.0065 47.5132 34.1468C50.1477 38.2872 54.1861 41.3442 58.8913 42.76C58.6839 44.4228 58.3695 46.3346 57.9416 47.166C57.3614 48.2917 60.7843 45.4967 62.6254 43.5105C63.3489 43.5885 64.076 43.6274 64.8037 43.627C67.5149 43.661 70.206 43.1575 72.7207 42.1455C75.2355 41.1336 77.5239 39.6334 79.4532 37.732C81.3825 35.8307 82.9144 33.5659 83.9599 31.0691C85.0054 28.5723 85.5438 25.8932 85.5438 23.1871C85.5438 20.4811 85.0054 17.802 83.9599 15.3052C82.9144 12.8084 81.3825 10.5436 79.4532 8.64223C77.5239 6.74084 75.2355 5.24067 72.7207 4.22874C70.206 3.21682 67.5149 2.71327 64.8037 2.74731Z" fill="#3B3A40"/>
<path d="M114.742 40.8061L114.622 40.5867L114.375 40.5507C113.673 40.4483 112.976 40.3093 112.288 40.1341C107.154 38.8182 102.755 35.5212 100.058 30.9687C97.3608 26.4162 96.5862 20.9809 97.9044 15.8585C99.2227 10.7361 102.526 6.3458 107.088 3.65371C111.65 0.961642 117.097 0.18837 122.23 1.50413C126.873 2.69666 130.931 5.5148 133.665 9.44434C136.399 13.3739 137.627 18.153 137.124 22.9103C136.622 27.6676 134.422 32.0863 130.927 35.3605C127.432 38.6348 122.874 40.5464 118.084 40.7465L117.663 40.7641L117.609 41.1821C117.502 42.0177 117.404 42.929 117.359 43.7502C117.34 44.0934 117.33 44.4306 117.334 44.7456C117.262 44.6535 117.185 44.5546 117.106 44.4495C116.34 43.4343 115.377 41.9708 114.742 40.8061Z" fill="#EEEDF2" stroke="black"/>
<path d="M179.219 148.095C178.026 147.628 176.765 147.362 175.485 147.306C174.213 147.255 172.939 147.35 171.689 147.591C170.433 147.794 169.192 148.083 167.974 148.454C166.765 148.852 165.563 149.315 164.364 149.748L157.168 152.514C155.965 152.97 154.762 153.427 153.557 153.873C152.952 154.089 152.344 154.304 151.735 154.52L151.622 154.562H151.599C151.585 154.574 151.575 154.592 151.573 154.611V167.841C151.508 167.841 151.758 167.841 151.897 167.861L152.869 167.906C153.518 167.932 154.166 167.945 154.788 167.958C157.351 167.997 159.914 167.905 162.467 167.683C165.03 167.546 167.579 167.207 170.088 166.667C167.606 167.392 165.066 167.903 162.496 168.194C159.927 168.419 157.348 168.512 154.769 168.472C154.121 168.472 153.472 168.446 152.824 168.42L151.852 168.375H151.609C151.476 168.378 151.346 168.337 151.239 168.259C151.176 168.206 151.126 168.138 151.096 168.061C151.074 167.996 151.064 167.927 151.067 167.857V154.737C151.064 154.688 151.064 154.64 151.067 154.591C151.077 154.485 151.118 154.384 151.184 154.3C151.25 154.216 151.339 154.153 151.44 154.119L151.553 154.077C152.16 153.87 152.763 153.653 153.365 153.43C154.568 152.987 155.771 152.53 156.97 152.074L164.169 149.308C165.372 148.856 166.571 148.396 167.803 147.989C169.045 147.611 170.311 147.316 171.592 147.106C172.882 146.933 174.187 146.913 175.482 147.047C176.779 147.174 178.045 147.529 179.219 148.095Z" fill="#6AA121"/>
</g>
<defs>
<clipPath id="clip0_460_2260">
<rect width="196" height="172" fill="white" transform="translate(0.5)"/>
</clipPath>
</defs>
</svg>
