<svg width="12" height="12" viewBox="0 0 12 12" fill="none" xmlns="http://www.w3.org/2000/svg">
<g clip-path="url(#clip0_483_976)">
<path d="M9 6.00009C8.47319 6.00071 7.95554 5.86243 7.49921 5.59919C7.04289 5.33596 6.66402 4.95707 6.40082 4.50073C6.13761 4.04439 5.99936 3.52672 6.00001 2.99992C6.00065 2.47311 6.14017 1.95578 6.4045 1.50009H2.121L2.1 1.32409C2.05691 0.959391 1.88153 0.623169 1.60709 0.379144C1.33266 0.135119 0.978237 0.000247971 0.611 9.15527e-05L0.5 9.15527e-05C0.367392 9.15527e-05 0.240215 0.05277 0.146447 0.146538C0.0526784 0.240306 0 0.367483 0 0.500092C0 0.6327 0.0526784 0.759877 0.146447 0.853645C0.240215 0.947413 0.367392 1.00009 0.5 1.00009H0.611C0.733467 1.00011 0.851669 1.04507 0.943186 1.12645C1.0347 1.20783 1.09317 1.31997 1.1075 1.44159L1.7955 7.29159C1.86693 7.89999 2.15924 8.46098 2.61695 8.8681C3.07467 9.27521 3.66593 9.5001 4.2785 9.50009H9.5C9.63261 9.50009 9.75979 9.44741 9.85355 9.35365C9.94732 9.25988 10 9.1327 10 9.00009C10 8.86748 9.94732 8.74031 9.85355 8.64654C9.75979 8.55277 9.63261 8.50009 9.5 8.50009H4.2785C3.96894 8.49932 3.6672 8.4028 3.41467 8.22377C3.16214 8.04473 2.97119 7.79195 2.868 7.50009H8.8285C9.41465 7.50013 9.98217 7.29421 10.4319 6.91831C10.8817 6.54241 11.185 6.02044 11.289 5.44359L11.408 4.78409C11.1299 5.16117 10.7671 5.46766 10.3488 5.67887C9.93057 5.89008 9.46856 6.00011 9 6.00009Z" fill="#4E4693"/>
<path d="M3.5 12.0004C4.05228 12.0004 4.5 11.5527 4.5 11.0004C4.5 10.4481 4.05228 10.0004 3.5 10.0004C2.94771 10.0004 2.5 10.4481 2.5 11.0004C2.5 11.5527 2.94771 12.0004 3.5 12.0004Z" fill="#4E4693"/>
<path d="M8.5 12.0004C9.05228 12.0004 9.5 11.5527 9.5 11.0004C9.5 10.4481 9.05228 10.0004 8.5 10.0004C7.94771 10.0004 7.5 10.4481 7.5 11.0004C7.5 11.5527 7.94771 12.0004 8.5 12.0004Z" fill="#4E4693"/>
<path d="M7.86639 4.47295C7.95237 4.56583 8.0563 4.6403 8.17189 4.69187C8.28748 4.74343 8.41233 4.77101 8.53888 4.77295H8.55539C8.67941 4.77336 8.80229 4.74913 8.91687 4.70167C9.03146 4.6542 9.13548 4.58445 9.22288 4.49645L11.3589 2.36045C11.4531 2.26643 11.5061 2.13884 11.5062 2.00573C11.5064 1.87263 11.4536 1.74492 11.3596 1.6507C11.2656 1.55649 11.138 1.50347 11.0049 1.50333C10.8718 1.50319 10.7441 1.55593 10.6499 1.64995L8.55639 3.74695L7.93939 3.08495C7.84881 2.98795 7.72342 2.9309 7.59078 2.92635C7.45815 2.9218 7.32914 2.97013 7.23214 3.0607C7.13513 3.15127 7.07808 3.27667 7.07354 3.40931C7.06899 3.54194 7.11732 3.67095 7.20789 3.76795L7.86639 4.47295Z" fill="#4E4693"/>
</g>
<defs>
<clipPath id="clip0_483_976">
<rect width="12" height="12" fill="white"/>
</clipPath>
</defs>
</svg>
