<svg width="16" height="16" viewBox="0 0 16 16" fill="none" xmlns="http://www.w3.org/2000/svg">
<path d="M6.30734 3.21986C6.94941 1.61918 7.27045 0.818834 7.79203 0.70791C7.92917 0.678744 8.07092 0.678744 8.20806 0.70791C8.72964 0.818834 9.05068 1.61918 9.69275 3.21986C10.0579 4.13014 10.2405 4.58529 10.5821 4.89485C10.6779 4.98168 10.7819 5.05901 10.8926 5.12576C11.2875 5.36374 11.7804 5.40788 12.7662 5.49617C14.4349 5.64562 15.2693 5.72034 15.5241 6.19609C15.5769 6.29462 15.6128 6.4013 15.6303 6.51169C15.7147 7.04472 15.1013 7.60278 13.8745 8.7189L13.5339 9.02884C12.9603 9.55065 12.6736 9.81155 12.5077 10.1372C12.4082 10.3325 12.3415 10.5428 12.3102 10.7598C12.2581 11.1215 12.3421 11.5 12.51 12.2569L12.57 12.5274C12.8712 13.8849 13.0218 14.5637 12.8338 14.8973C12.665 15.197 12.3539 15.3889 12.0103 15.4053C11.6278 15.4236 11.0888 14.9844 10.0108 14.106C9.30062 13.5273 8.94552 13.2379 8.55131 13.1249C8.19106 13.0216 7.80903 13.0216 7.44878 13.1249C7.05457 13.2379 6.69947 13.5273 5.98926 14.106C4.91128 14.9844 4.3723 15.4236 3.98978 15.4053C3.64618 15.3889 3.33513 15.197 3.16627 14.8973C2.97827 14.5637 3.12887 13.8849 3.43007 12.5274L3.49007 12.2569C3.65803 11.5 3.742 11.1215 3.68989 10.7598C3.65863 10.5428 3.59191 10.3325 3.49241 10.1372C3.32654 9.81155 3.03977 9.55065 2.46622 9.02884L2.12555 8.7189C0.898761 7.60278 0.285366 7.04472 0.36984 6.51169C0.387335 6.4013 0.423214 6.29462 0.475985 6.19609C0.730785 5.72034 1.56517 5.64562 3.23393 5.49617C4.21971 5.40788 4.71261 5.36374 5.10744 5.12576C5.21819 5.05901 5.32221 4.98168 5.41802 4.89485C5.75964 4.58529 5.9422 4.13014 6.30734 3.21986Z" fill="#F9D646"/>
</svg>
