<svg width="24" height="24" viewBox="0 0 24 24" fill="none" xmlns="http://www.w3.org/2000/svg">
<path fill-rule="evenodd" clip-rule="evenodd" d="M11.584 3.72978C11.8583 3.67145 12.1418 3.67145 12.4161 3.72978C13.1459 3.88499 13.5439 4.48745 13.7833 4.92657C14.0375 5.39293 14.2965 6.03869 14.5972 6.78856L14.6209 6.84757C14.8097 7.31818 14.929 7.61349 15.0395 7.83313C15.1422 8.03709 15.2066 8.11129 15.2536 8.15384C15.3015 8.19726 15.3535 8.23592 15.4089 8.2693C15.4623 8.30148 15.5523 8.34215 15.7804 8.3821C16.0251 8.42497 16.346 8.45453 16.8554 8.50015L16.9204 8.50597C17.6991 8.57566 18.3762 8.63626 18.8862 8.74624C19.3775 8.85218 20.0541 9.06745 20.4057 9.72396C20.5112 9.92101 20.583 10.1344 20.618 10.3552C20.7341 11.0882 20.3302 11.666 20.0036 12.0472C19.6665 12.4407 19.1679 12.8943 18.596 13.4145L18.2069 13.7685C17.5754 14.3431 17.462 14.4669 17.3988 14.5911C17.349 14.6887 17.3156 14.7939 17.3 14.9024C17.2801 15.0403 17.3014 15.2069 17.4863 16.0403L17.5562 16.3552C17.6984 16.9961 17.8188 17.5389 17.8763 17.9616C17.9278 18.3405 17.9788 18.9025 17.7051 19.3882C17.3673 19.9876 16.7453 20.3713 16.0581 20.4042C15.5011 20.4308 15.0218 20.133 14.7063 19.9169C14.3543 19.6759 13.9233 19.3246 13.4144 18.9099L13.3792 18.8812C13.0129 18.5827 12.7791 18.393 12.5891 18.26C12.4092 18.1341 12.3249 18.1002 12.2757 18.0861C12.0956 18.0345 11.9046 18.0345 11.7244 18.0861C11.6753 18.1002 11.591 18.1341 11.4111 18.26C11.2211 18.393 10.9873 18.5827 10.621 18.8812L10.5858 18.9099C10.0768 19.3246 9.64583 19.6759 9.29381 19.9169C8.97833 20.133 8.49906 20.4308 7.94211 20.4042C7.25491 20.3713 6.63282 19.9876 6.29508 19.3882C6.02137 18.9025 6.07236 18.3405 6.12387 17.9616C6.18133 17.5389 6.30178 16.9961 6.444 16.3552L6.51385 16.0403C6.69877 15.2069 6.72002 15.0403 6.70015 14.9024C6.68452 14.7939 6.65116 14.6887 6.60141 14.5911C6.53817 14.4669 6.4248 14.3431 5.7933 13.7685L5.45263 13.4586C5.43643 13.4438 5.42029 13.4292 5.40421 13.4145C4.83229 12.8943 4.33371 12.4407 3.9966 12.0472C3.66999 11.666 3.26603 11.0882 3.3822 10.3552C3.41719 10.1344 3.48895 9.92102 3.59449 9.72396C3.9461 9.06745 4.62267 8.85218 5.11396 8.74624C5.62398 8.63626 6.30107 8.57566 7.07978 8.50597C7.10136 8.50404 7.12302 8.5021 7.14476 8.50015C7.65417 8.45453 7.97502 8.42497 8.21977 8.3821C8.44783 8.34215 8.53788 8.30148 8.59127 8.2693C8.64665 8.23592 8.69865 8.19726 8.74656 8.15384C8.79352 8.11129 8.85798 8.03709 8.96061 7.83313C9.07114 7.61349 9.19049 7.31818 9.37926 6.84757C9.38718 6.82783 9.39506 6.80816 9.40293 6.78856C9.70367 6.03869 9.96266 5.39293 10.2169 4.92657C10.4563 4.48745 10.8543 3.88499 11.584 3.72978ZM11.9729 5.88388C11.7824 6.23341 11.5667 6.76647 11.2355 7.59215L11.2215 7.62714C11.0509 8.05239 10.9004 8.42756 10.7472 8.73213C10.5818 9.06069 10.3842 9.36884 10.0896 9.63586C9.94583 9.7661 9.78981 9.8821 9.62368 9.98223C9.28224 10.188 8.92842 10.2884 8.56488 10.3521C8.22716 10.4113 7.82152 10.4476 7.36066 10.4888L7.32316 10.4922C6.46043 10.5694 5.90948 10.6207 5.53555 10.7013C5.5184 10.705 5.5022 10.7086 5.48692 10.7122C5.49586 10.723 5.50535 10.7343 5.51542 10.746C5.7611 11.0328 6.16392 11.4018 6.79854 11.9792L7.13921 12.2892C7.17246 12.3194 7.20548 12.3494 7.23823 12.3791C7.71335 12.8101 8.1323 13.1902 8.38349 13.6832C8.53274 13.9762 8.63281 14.2917 8.6797 14.6172C8.75862 15.1649 8.63531 15.7169 8.49546 16.343C8.48582 16.3862 8.4761 16.4297 8.46637 16.4735L8.40636 16.744C8.25165 17.4413 8.15045 17.9013 8.10564 18.231C8.10162 18.2606 8.09828 18.2877 8.09551 18.3124C8.11638 18.2988 8.13908 18.2837 8.1637 18.2668C8.43821 18.0788 8.80391 17.7819 9.3576 17.3308L9.38339 17.3097C9.71646 17.0383 10.007 16.8016 10.264 16.6216C10.5378 16.4299 10.8281 16.2625 11.1732 16.1636C11.7136 16.0087 12.2866 16.0087 12.827 16.1636C13.172 16.2625 13.4623 16.4299 13.7361 16.6216C13.9932 16.8016 14.2837 17.0383 14.6168 17.3097L14.6426 17.3308C15.1962 17.7819 15.5619 18.0788 15.8365 18.2668C15.8611 18.2837 15.8838 18.2988 15.9047 18.3124C15.9019 18.2877 15.8985 18.2606 15.8945 18.231C15.8497 17.9013 15.7485 17.4413 15.5938 16.744L15.5338 16.4735C15.5241 16.4297 15.5143 16.3862 15.5047 16.343C15.3648 15.7169 15.2415 15.1649 15.3205 14.6172C15.3673 14.2917 15.4674 13.9762 15.6167 13.6832C15.8679 13.1902 16.2868 12.8101 16.7619 12.3791C16.7947 12.3494 16.8277 12.3194 16.8609 12.2892L17.2016 11.9792C17.8362 11.4018 18.2391 11.0328 18.4847 10.746C18.4948 10.7343 18.5043 10.723 18.5132 10.7122C18.498 10.7086 18.4818 10.705 18.4646 10.7013C18.0907 10.6207 17.5397 10.5694 16.677 10.4922L16.6395 10.4888C16.1786 10.4476 15.773 10.4113 15.4353 10.3521C15.0717 10.2884 14.7179 10.188 14.3765 9.98223C14.2104 9.8821 14.0543 9.7661 13.9106 9.63586C13.6159 9.36884 13.4183 9.06069 13.253 8.73213C13.0997 8.42755 12.9492 8.05237 12.7787 7.6271L12.7647 7.59215C12.4335 6.76647 12.2178 6.23341 12.0273 5.88388C12.0178 5.86658 12.0088 5.85034 12.0001 5.8351C11.9914 5.85034 11.9823 5.86658 11.9729 5.88388ZM18.7429 10.7857L18.7418 10.785ZM18.6509 10.517L18.6516 10.5155ZM8.08497 18.5296L8.08528 18.532Z" fill="#F9D646"/>
</svg>
